<?xml version="1.0" encoding="iso-8859-1"?>
<!-- Generator: Adobe Illustrator 19.0.0, SVG Export Plug-In . SVG Version: 6.00 Build 0)  -->
<svg xmlns="http://www.w3.org/2000/svg" xmlns:xlink="http://www.w3.org/1999/xlink" version="1.1" id="Layer_1" x="0px" y="0px" viewBox="0 0 512 512" style="enable-background:new 0 0 512 512;" xml:space="preserve" width="512px" height="512px">
<g>
	<g>
		<g>
			<path d="M349.867,384c4.719,0,8.533-3.823,8.533-8.533s-3.814-8.533-8.533-8.533h-8.969c0.282-2.807,0.435-5.658,0.435-8.533     c0-12.484-2.756-24.32-7.603-35.029l7.825-4.514c4.087-2.355,5.487-7.578,3.132-11.657c-2.372-4.087-7.595-5.478-11.665-3.123     l-7.859,4.531c-5.376-7.45-11.921-13.986-19.379-19.371l4.54-7.859c2.364-4.087,0.956-9.301-3.123-11.665     c-4.07-2.355-9.301-0.956-11.657,3.132l-4.523,7.825c-8.226-3.721-17.118-6.238-26.487-7.168v-8.969     c0-4.71-3.814-8.533-8.533-8.533s-8.533,3.823-8.533,8.533v8.969c-9.37,0.93-18.261,3.447-26.496,7.168l-4.514-7.825     c-2.364-4.088-7.586-5.487-11.657-3.132c-4.079,2.364-5.487,7.586-3.123,11.665l4.54,7.859     c-7.458,5.385-14.003,11.921-19.371,19.371l-7.868-4.531c-4.087-2.355-9.301-0.964-11.665,3.123     c-2.355,4.079-0.956,9.301,3.132,11.657l7.825,4.523c-3.721,8.226-6.238,17.118-7.168,26.487h-8.969     c-4.719,0-8.533,3.823-8.533,8.533s3.814,8.533,8.533,8.533h8.969c0.93,9.37,3.447,18.261,7.168,26.487l-7.825,4.523     c-4.087,2.355-5.487,7.578-3.132,11.657c1.587,2.739,4.454,4.267,7.407,4.267c1.451,0,2.91-0.367,4.258-1.143l7.859-4.54     c5.376,7.458,11.921,13.995,19.379,19.379l-4.54,7.859c-2.364,4.087-0.956,9.31,3.123,11.665c1.34,0.768,2.807,1.135,4.258,1.135     c2.953,0,5.82-1.528,7.398-4.267l4.514-7.825c8.235,3.72,17.126,6.238,26.496,7.168v8.969c0,4.71,3.814,8.533,8.533,8.533     s8.533-3.823,8.533-8.533v-8.969c9.37-0.93,18.261-3.448,26.487-7.168l4.523,7.825c1.579,2.739,4.446,4.267,7.398,4.267     c1.451,0,2.918-0.367,4.258-1.135c4.079-2.364,5.487-7.578,3.123-11.665l-4.54-7.859c7.458-5.385,14.003-11.921,19.379-19.371     l7.859,4.531c1.348,0.777,2.816,1.143,4.258,1.143c2.953,0,5.82-1.527,7.407-4.267c2.355-4.087,0.956-9.301-3.132-11.657     l-7.825-4.514c1.391-3.063,2.645-6.195,3.669-9.429H349.867z M256.017,426.667c-0.009,0-0.009-0.009-0.017-0.009     s-0.009,0.009-0.017,0.009c-37.623-0.009-68.232-30.609-68.25-68.233c0-0.017,0.009-0.026,0.009-0.034     c0-0.017-0.009-0.017-0.009-0.034c0.017-37.623,30.635-68.232,68.267-68.232c37.641,0,68.267,30.626,68.267,68.267     C324.267,396.041,293.649,426.658,256.017,426.667z" fill="#357bff"/>
			<path d="M401.067,0H110.933C87.407,0,68.267,19.14,68.267,42.667v426.667c0,23.526,19.14,42.667,42.667,42.667h256     c4.719,0,8.533-3.823,8.533-8.533s-3.814-8.533-8.533-8.533h-256c-14.114,0-25.6-11.486-25.6-25.6V42.667     c0-14.114,11.486-25.6,25.6-25.6h290.133c14.114,0,25.6,11.486,25.6,25.6v426.667c0,14.114-11.486,25.6-25.6,25.6     c-4.719,0-8.533,3.823-8.533,8.533s3.814,8.533,8.533,8.533c23.526,0,42.667-19.14,42.667-42.667V42.667     C443.733,19.14,424.593,0,401.067,0z" fill="#357bff"/>
			<path d="M281.6,213.333c0-14.114-11.486-25.6-25.6-25.6s-25.6,11.486-25.6,25.6c0,14.114,11.486,25.6,25.6,25.6     S281.6,227.447,281.6,213.333z M247.467,213.333c0-4.702,3.823-8.533,8.533-8.533s8.533,3.831,8.533,8.533     c0,4.702-3.823,8.533-8.533,8.533S247.467,218.035,247.467,213.333z" fill="#357bff"/>
			<path d="M358.4,59.733c0-4.71-3.814-8.533-8.533-8.533H162.133c-4.719,0-8.533,3.823-8.533,8.533v102.4     c0,4.71,3.814,8.533,8.533,8.533H256c3.098,0,5.956-1.681,7.467-4.395c1.502-2.714,1.417-6.033-0.23-8.661L220.57,89.344     c-2.492-4.002-7.748-5.222-11.759-2.714c-3.994,2.5-5.214,7.757-2.714,11.759l34.5,55.211h-69.931V68.267h170.667V153.6h-51.2     c-4.719,0-8.533,3.823-8.533,8.533c0,4.71,3.814,8.533,8.533,8.533h59.733c4.719,0,8.533-3.823,8.533-8.533V59.733z" fill="#357bff"/>
			<path d="M179.2,238.933c14.114,0,25.6-11.486,25.6-25.6c0-14.114-11.486-25.6-25.6-25.6s-25.6,11.486-25.6,25.6     C153.6,227.447,165.086,238.933,179.2,238.933z M179.2,204.8c4.71,0,8.533,3.831,8.533,8.533c0,4.702-3.823,8.533-8.533,8.533     s-8.533-3.831-8.533-8.533C170.667,208.631,174.49,204.8,179.2,204.8z" fill="#357bff"/>
			<path d="M332.8,187.733c-14.114,0-25.6,11.486-25.6,25.6c0,14.114,11.486,25.6,25.6,25.6s25.6-11.486,25.6-25.6     C358.4,199.219,346.914,187.733,332.8,187.733z M332.8,221.867c-4.71,0-8.533-3.831-8.533-8.533c0-4.702,3.823-8.533,8.533-8.533     s8.533,3.831,8.533,8.533C341.333,218.035,337.51,221.867,332.8,221.867z" fill="#357bff"/>
		</g>
	</g>
</g>
<g>
</g>
<g>
</g>
<g>
</g>
<g>
</g>
<g>
</g>
<g>
</g>
<g>
</g>
<g>
</g>
<g>
</g>
<g>
</g>
<g>
</g>
<g>
</g>
<g>
</g>
<g>
</g>
<g>
</g>
</svg>
