<svg xmlns="http://www.w3.org/2000/svg" viewBox="0 0 147.26 57.6"><path d="M143.06 0H7L0 3.62v50.12l7 3.86h136.06V0zm-17.57 43.06a1.3 1.3 0 1 1 2.6 0 1.3 1.3 0 0 1-2.6 0zm12.04 10.76a2.1 2.1 0 1 1 4.2 0 2.1 2.1 0 0 1-4.2 0zm0-50.01a2.1 2.1 0 1 1 4.2 0 2.1 2.1 0 0 1-4.2 0zM125.5 39.52a1.3 1.3 0 1 1 2.6 0 1.3 1.3 0 0 1-2.6 0z" fill="#404040"/><path fill="#666" d="M122.08 49.54h3.06v1.18h-3.06z"/><text transform="rotate(90 52.32 66.65)" fill="#00a9f3" font-family="MyriadPro-Bold" font-size="3.48">+</text><path fill="#006900" d="M12.2 6.29h73.34v44.73H12.2z"/><path fill="#b2b2b2" d="M78.13 7.02h6.39v4.15h-6.39z"/><path fill="#CCC" d="M12.84 7.02h5.27v4.15h-5.27z"/><path fill="#d29a33" d="M77.85 15.03h6.39v6.88h-6.4z"/><path fill="#a8916f" d="M13.57 16.38h3.6v5.53h-3.6zm4.14 30.41h4.25v3.44h-4.25zm6.34 0h4.26v3.44h-4.26zm6.35 0h4.25v3.44H30.4zm6.34 0H41v3.44h-4.25zm6.35 0h4.25v3.44h-4.25zm6.34 0h4.25v3.44h-4.25zm6.34 0h4.26v3.44h-4.26zm6.35 0h4.25v3.44h-4.25zm6.34 0h4.25v3.44h-4.25zm6.34 0h4.26v3.44H74.8zM17.71 7.02h4.25v3.44h-4.25zm6.34 0h4.26v3.44h-4.26zm6.35 0h4.25v3.44H30.4zm6.34 0H41v3.44h-4.25zm6.35 0h4.25v3.44h-4.25zm6.34 0h4.25v3.44h-4.25zm6.34 0h4.26v3.44h-4.26zm6.35 0h4.25v3.44h-4.25zm6.34 0h4.25v3.44h-4.25zm6.34 0h4.26v3.44H74.8z"/><path fill="#b2b2b2" d="M80.59 44.45h3.93v5.78h-3.93z"/><path fill="#CCC" d="M12.84 45.38h3.93v4.85h-3.93zm0-12.67h3.93v9.3h-3.93z"/><path fill="#b2b2b2" d="M78.13 24.79h6.39v4.15h-6.39zm0 13.72h6.39v4.15h-6.39z"/><path fill="#b2b2b2" d="M14 7.68h69.74v41.94H14z"/><path opacity=".35" fill="#e6e6e6" d="M14 49.62L54.63 38.9 83.74 7.7v41.93z"/><path d="M79.72 47.27h-61.7a2.18 2.18 0 0 1-2.18-2.18V12.21c0-1.2.98-2.17 2.18-2.17h61.7c1.2 0 2.18.97 2.18 2.17V45.1a2.18 2.18 0 0 1-2.18 2.18z" fill="#f2f2f2"/><path d="M34.27 33.56l.14-1.31h1.24v.34h-.91l-.08.6a.65.65 0 0 1 .38-.12c.22 0 .4.07.51.2.12.14.19.34.19.58a.83.83 0 0 1-.2.57c-.12.15-.32.22-.57.22a.83.83 0 0 1-.53-.17c-.14-.11-.2-.27-.2-.48l.37-.02c0 .12.03.2.1.26a.36.36 0 0 0 .26.1c.12 0 .21-.05.28-.13a.55.55 0 0 0 .1-.34.54.54 0 0 0-.1-.34.33.33 0 0 0-.29-.14.44.44 0 0 0-.24.06.3.3 0 0 0-.11.15l-.34-.03zm-1.77 0l.14-1.31h1.24v.34h-.92l-.07.6a.65.65 0 0 1 .38-.12c.22 0 .4.07.51.2.12.14.18.34.18.58a.83.83 0 0 1-.19.57c-.13.15-.32.22-.57.22a.83.83 0 0 1-.53-.17c-.14-.11-.2-.27-.2-.48l.37-.02c0 .12.03.2.1.26a.36.36 0 0 0 .26.1c.12 0 .21-.05.28-.13a.55.55 0 0 0 .1-.34.54.54 0 0 0-.1-.34.33.33 0 0 0-.29-.14.44.44 0 0 0-.24.06.3.3 0 0 0-.11.15l-.34-.03zm-1.77 0l.14-1.31h1.24v.34h-.91l-.07.6a.65.65 0 0 1 .37-.12c.22 0 .4.07.51.2.12.14.19.34.19.58a.83.83 0 0 1-.2.57c-.12.15-.32.22-.57.22a.83.83 0 0 1-.53-.17c-.14-.11-.2-.27-.2-.48l.37-.02c0 .12.03.2.1.26a.36.36 0 0 0 .26.1c.12 0 .21-.05.28-.13a.55.55 0 0 0 .1-.34.54.54 0 0 0-.1-.34.33.33 0 0 0-.29-.14.44.44 0 0 0-.24.06.3.3 0 0 0-.11.15l-.34-.03zm-1.77 0l.14-1.31h1.24v.34h-.92l-.07.6a.65.65 0 0 1 .38-.12c.22 0 .4.07.51.2.12.14.18.34.18.58a.83.83 0 0 1-.19.57c-.13.15-.32.22-.57.22a.83.83 0 0 1-.53-.17c-.14-.11-.2-.27-.2-.48l.37-.02c0 .12.03.2.1.26a.36.36 0 0 0 .26.1c.12 0 .21-.05.28-.13a.55.55 0 0 0 .1-.34.54.54 0 0 0-.1-.34.33.33 0 0 0-.29-.14.44.44 0 0 0-.24.06.3.3 0 0 0-.11.15l-.34-.03zm-4.78 8.03h-.7v.74h-.29v-1.74h1.11v.23h-.82v.53h.7v.24zm1.63.17a.54.54 0 0 1-.16.43.68.68 0 0 1-.48.16.64.64 0 0 1-.49-.2.74.74 0 0 1-.19-.52v-.33a.75.75 0 0 1 .19-.53.62.62 0 0 1 .48-.2c.2 0 .37.05.49.15a.53.53 0 0 1 .17.43h-.28c0-.1-.03-.2-.1-.26-.06-.06-.15-.1-.28-.1a.33.33 0 0 0-.28.15.58.58 0 0 0-.1.35v.33a.57.57 0 0 0 .1.36.34.34 0 0 0 .3.14c.11 0 .2-.03.26-.1.06-.05.1-.14.1-.26h.28zm1.56 0a.54.54 0 0 1-.17.43.68.68 0 0 1-.48.16.64.64 0 0 1-.49-.2.74.74 0 0 1-.19-.52v-.33a.75.75 0 0 1 .2-.53.62.62 0 0 1 .48-.2c.2 0 .36.05.48.15a.53.53 0 0 1 .17.43h-.28c0-.1-.03-.2-.1-.26-.06-.06-.15-.1-.27-.1a.33.33 0 0 0-.28.15.58.58 0 0 0-.1.35v.33c0 .15.03.27.1.36a.34.34 0 0 0 .28.14c.12 0 .21-.03.27-.1.07-.05.1-.14.1-.26h.28zm1.2.57h-.29v-1.74h.3v1.74zm.39 0v-1.74h.57c.22 0 .4.07.54.2a.72.72 0 0 1 .21.54v.26a.72.72 0 0 1-.2.53.73.73 0 0 1-.55.21h-.57zm.29-1.5v1.27h.28a.42.42 0 0 0 .34-.14.53.53 0 0 0 .12-.37v-.26a.53.53 0 0 0-.12-.36.42.42 0 0 0-.34-.15h-.28zm2.25.45h-.3v-.27h.3v.27zm0 1.05h-.3v-.28h.3v.28zm1.56-1.1l.37-.64h.35l-.54.86.56.88h-.35l-.38-.65-.38.65h-.34l.54-.88-.53-.86h.34l.37.64zm1.25.44v.66h-.29v-1.74h.67c.19 0 .34.05.45.15.11.1.16.23.16.39a.5.5 0 0 1-.16.4c-.1.1-.26.14-.45.14h-.38zm0-.23h.38c.1 0 .19-.03.24-.09a.3.3 0 0 0 .08-.22.31.31 0 0 0-.08-.22c-.05-.06-.13-.09-.24-.09h-.38v.62zm1.86 0l.42-.85h.32l-.6 1.13v.61h-.29v-.63l-.59-1.1h.32l.42.84zm1.86.44a.23.23 0 0 0-.08-.17.71.71 0 0 0-.27-.13 1.16 1.16 0 0 1-.44-.2.4.4 0 0 1-.15-.33c0-.14.06-.25.17-.35s.26-.13.43-.13a.65.65 0 0 1 .45.15.46.46 0 0 1 .16.37v.01h-.28a.28.28 0 0 0-.09-.22.35.35 0 0 0-.24-.08.33.33 0 0 0-.23.07.23.23 0 0 0-.08.18.2.2 0 0 0 .09.16.95.95 0 0 0 .29.13c.18.05.32.12.41.2.1.1.15.2.15.34a.41.41 0 0 1-.17.35.72.72 0 0 1-.45.13.77.77 0 0 1-.46-.14.45.45 0 0 1-.19-.4h.28c0 .1.04.17.11.23.07.05.16.08.26.08a.39.39 0 0 0 .24-.07.21.21 0 0 0 .09-.18zm1.49.04h-.61l-.14.41h-.3l.6-1.74h.29l.6 1.74h-.3l-.14-.4zm-.54-.24h.46l-.22-.68-.24.68zm1.48-.07v.72h-.3v-1.74h.6c.2 0 .35.05.46.13a.46.46 0 0 1 .15.38.4.4 0 0 1-.07.23.48.48 0 0 1-.2.16c.1.03.17.08.21.15.05.07.07.15.07.26v.14c0 .05 0 .1.02.15a.2.2 0 0 0 .06.11v.03h-.3a.19.19 0 0 1-.06-.12 1.08 1.08 0 0 1-.01-.17v-.14a.29.29 0 0 0-.08-.21.28.28 0 0 0-.21-.08h-.34zm0-.23h.29c.12 0 .2-.03.26-.07.05-.05.08-.11.08-.2a.27.27 0 0 0-.08-.21c-.06-.05-.14-.08-.24-.08h-.31v.55zm2.17.54H42l-.13.41h-.3l.6-1.74h.28l.6 1.74h-.3l-.13-.4zm-.54-.24h.46l-.22-.68h-.01l-.23.68zm2.5-1.09v1.15a.57.57 0 0 1-.2.45.73.73 0 0 1-.49.17.7.7 0 0 1-.48-.17.57.57 0 0 1-.19-.45v-1.15h.3v1.15a.38.38 0 0 0 .1.28c.07.07.16.1.27.1a.4.4 0 0 0 .29-.1c.07-.06.1-.16.1-.28v-1.15h.3zm1.43 1.74H44.9v-.2l.54-.63c.09-.1.15-.19.19-.26a.43.43 0 0 0 .05-.19.26.26 0 0 0-.06-.18c-.05-.05-.1-.07-.18-.07a.25.25 0 0 0-.2.09.34.34 0 0 0-.08.22h-.28v-.01a.5.5 0 0 1 .14-.38.56.56 0 0 1 .42-.15c.16 0 .3.04.39.13.1.09.14.2.14.35 0 .1-.03.19-.08.28-.05.08-.14.2-.26.34l-.37.42h.76v.24zm.89-1.76a.96.96 0 0 1 .36.07l-.05.22a.75.75 0 0 0-.31-.06.3.3 0 0 0-.26.13.54.54 0 0 0-.1.34v.09a.5.5 0 0 1 .18-.11.57.57 0 0 1 .2-.04c.16 0 .27.05.36.15a.61.61 0 0 1 .13.4.6.6 0 0 1-.16.43.54.54 0 0 1-.4.16.54.54 0 0 1-.43-.18.73.73 0 0 1-.16-.5v-.39c0-.2.06-.38.18-.52a.6.6 0 0 1 .46-.2zm-.07.86a.38.38 0 0 0-.17.04.28.28 0 0 0-.11.1v.1a.55.55 0 0 0 .08.33c.06.08.13.12.22.12.08 0 .15-.03.2-.1s.07-.15.07-.26a.36.36 0 0 0-.08-.24.26.26 0 0 0-.2-.09zm1.94.28c0 .2-.05.36-.15.47a.53.53 0 0 1-.42.17.53.53 0 0 1-.41-.17.68.68 0 0 1-.16-.47v-.5c0-.2.05-.35.16-.47a.53.53 0 0 1 .41-.17.53.53 0 0 1 .42.17c.1.12.15.28.15.48v.5zm-.29-.54a.45.45 0 0 0-.07-.27.24.24 0 0 0-.2-.1.24.24 0 0 0-.21.1.45.45 0 0 0-.08.27v.58c0 .12.03.21.08.28.05.06.12.1.2.1a.24.24 0 0 0 .21-.1.46.46 0 0 0 .07-.28v-.58zM20.54 34.6h-.4v-2.35h.4v2.35zm1.71-.54h.01l.68-1.81h.5v2.35h-.39v-1.69l-.66 1.7h-.27l-.65-1.73h-.01v1.72h-.4v-2.35h.52l.67 1.81zm3-.52h-.92v.75h1.09v.31h-1.48v-2.35h1.47v.32h-1.08v.66h.92v.31zm.95 1.06h-.4v-2.35h.4v2.35zm.92-1.41h-.4v-.38h.4v.38zm0 1.41h-.4v-.37h.4v.37zm19.7-1.04l.14-1.31h1.24v.34h-.91l-.07.6a.65.65 0 0 1 .37-.12c.22 0 .4.07.51.2.13.14.19.34.19.58a.83.83 0 0 1-.2.57c-.12.15-.32.22-.57.22a.83.83 0 0 1-.53-.17.55.55 0 0 1-.2-.48l.37-.01c0 .1.03.19.1.25a.36.36 0 0 0 .26.1c.12 0 .21-.05.28-.13a.55.55 0 0 0 .1-.34.54.54 0 0 0-.1-.34.33.33 0 0 0-.29-.13.44.44 0 0 0-.24.05.3.3 0 0 0-.11.15l-.34-.03zm-1.77 0l.14-1.31h1.24v.34h-.91l-.07.6a.65.65 0 0 1 .37-.12c.22 0 .4.07.51.2.13.14.19.34.19.58a.83.83 0 0 1-.2.57c-.12.15-.32.22-.57.22a.83.83 0 0 1-.53-.17.55.55 0 0 1-.2-.48l.37-.01c0 .1.03.19.1.25a.36.36 0 0 0 .26.1c.12 0 .21-.05.28-.13a.55.55 0 0 0 .1-.34.54.54 0 0 0-.1-.34.33.33 0 0 0-.29-.13.44.44 0 0 0-.24.05.3.3 0 0 0-.11.15l-.34-.03zm-1.77 0l.14-1.31h1.24v.34h-.91l-.07.6a.65.65 0 0 1 .37-.12c.22 0 .4.07.51.2.13.14.19.34.19.58a.83.83 0 0 1-.2.57c-.12.15-.31.22-.57.22a.83.83 0 0 1-.53-.17.55.55 0 0 1-.2-.48l.37-.01c0 .1.03.19.1.25a.36.36 0 0 0 .26.1c.12 0 .21-.05.28-.13a.55.55 0 0 0 .1-.34.54.54 0 0 0-.1-.34.33.33 0 0 0-.29-.13.44.44 0 0 0-.24.05.3.3 0 0 0-.11.15l-.34-.03zm-1.77 0l.14-1.31h1.24v.34h-.91l-.07.6a.65.65 0 0 1 .37-.12c.22 0 .4.07.51.2.13.14.19.34.19.58a.83.83 0 0 1-.2.57c-.12.15-.31.22-.57.22a.83.83 0 0 1-.53-.17.55.55 0 0 1-.2-.48l.37-.01c0 .1.03.19.1.25a.36.36 0 0 0 .26.1c.12 0 .21-.05.28-.13a.55.55 0 0 0 .1-.34.54.54 0 0 0-.1-.34.33.33 0 0 0-.29-.13.44.44 0 0 0-.24.05.3.3 0 0 0-.11.15l-.34-.03zm-1.85 0l.14-1.31h1.24v.34h-.91l-.07.6a.65.65 0 0 1 .37-.12c.22 0 .4.07.51.2.13.14.19.34.19.58a.83.83 0 0 1-.2.57c-.12.15-.32.22-.57.22a.83.83 0 0 1-.53-.17c-.14-.11-.2-.27-.2-.48l.37-.01c0 .1.03.19.1.25a.36.36 0 0 0 .26.1c.12 0 .21-.05.28-.13a.55.55 0 0 0 .1-.34.54.54 0 0 0-.1-.34.33.33 0 0 0-.29-.13.44.44 0 0 0-.24.05.3.3 0 0 0-.11.15l-.34-.03zm-1.77 0l.14-1.31h1.24v.34h-.91l-.07.6a.65.65 0 0 1 .37-.12c.22 0 .4.07.51.2.13.14.19.34.19.58a.83.83 0 0 1-.2.57c-.12.15-.32.22-.57.22a.83.83 0 0 1-.53-.17c-.14-.11-.2-.27-.2-.48l.37-.01c0 .1.03.19.1.25a.36.36 0 0 0 .26.1c.12 0 .21-.05.28-.13a.55.55 0 0 0 .1-.34.54.54 0 0 0-.1-.34.33.33 0 0 0-.29-.13.44.44 0 0 0-.24.05.3.3 0 0 0-.11.15l-.34-.03zm-1.77 0l.14-1.31h1.24v.34h-.91l-.07.6a.65.65 0 0 1 .37-.12c.22 0 .4.07.51.2.13.14.19.34.19.58a.83.83 0 0 1-.2.57c-.12.15-.32.22-.57.22a.83.83 0 0 1-.53-.17.55.55 0 0 1-.2-.48l.37-.01c0 .1.03.19.1.25a.36.36 0 0 0 .26.1c.12 0 .21-.05.28-.13a.55.55 0 0 0 .1-.34.54.54 0 0 0-.1-.34.33.33 0 0 0-.29-.13.44.44 0 0 0-.24.05.3.3 0 0 0-.11.15l-.34-.03zm-14.59-4.61c0 .12-.03.22-.1.31a.62.62 0 0 1-.25.21.71.71 0 0 1 .3.23c.08.1.12.21.12.34 0 .22-.07.39-.22.5a.85.85 0 0 1-.55.19.91.91 0 0 1-.59-.18.62.62 0 0 1-.23-.51c0-.13.04-.24.12-.34a.72.72 0 0 1 .32-.23.64.64 0 0 1-.26-.2.52.52 0 0 1-.1-.32c0-.21.06-.37.2-.48a.82.82 0 0 1 .53-.16c.21 0 .38.05.51.16.14.11.2.27.2.48zm-.4.01c0-.1-.02-.18-.08-.24a.3.3 0 0 0-.23-.1.34.34 0 0 0-.25.1c-.06.05-.1.14-.1.24s.04.2.1.26a.34.34 0 0 0 .25.1c.1 0 .17-.04.23-.1a.37.37 0 0 0 .09-.26zm.08 1.07a.38.38 0 0 0-.39-.4.42.42 0 0 0-.3.11.37.37 0 0 0-.11.29c0 .11.04.2.11.28.08.07.18.1.3.1s.2-.03.28-.1a.37.37 0 0 0 .11-.28zm2.25-.18c0 .27-.07.49-.21.64a.71.71 0 0 1-.56.24.72.72 0 0 1-.57-.24.93.93 0 0 1-.2-.64v-.67c0-.27.06-.48.2-.64.14-.15.33-.23.56-.23s.42.08.57.23c.14.16.2.37.2.64v.67zm-.4-.73a.6.6 0 0 0-.1-.37.33.33 0 0 0-.28-.13.33.33 0 0 0-.28.14.61.61 0 0 0-.1.37v.78c0 .16.04.28.1.37a.33.33 0 0 0 .29.14.33.33 0 0 0 .28-.14c.06-.08.1-.21.1-.37v-.78zm1.5.21c.13 0 .22-.03.28-.1a.39.39 0 0 0 .08-.26c0-.1-.03-.19-.09-.25s-.15-.1-.26-.1a.38.38 0 0 0-.27.1.3.3 0 0 0-.1.23h-.38a.54.54 0 0 1 .2-.46.8.8 0 0 1 .55-.18.8.8 0 0 1 .54.17c.14.1.2.27.2.49a.53.53 0 0 1-.08.3.6.6 0 0 1-.25.2c.12.05.21.12.27.22.07.1.1.2.1.34a.63.63 0 0 1-.22.51.84.84 0 0 1-.56.19.88.88 0 0 1-.55-.18.55.55 0 0 1-.22-.48h.38c0 .1.03.17.1.24a.39.39 0 0 0 .29.1.38.38 0 0 0 .28-.1.37.37 0 0 0 .1-.28c0-.13-.03-.23-.1-.3-.06-.06-.16-.1-.29-.1h-.26v-.3h.26zm2.66.52c0 .27-.07.49-.21.64a.71.71 0 0 1-.56.24.72.72 0 0 1-.56-.24.93.93 0 0 1-.21-.64v-.67c0-.27.07-.48.2-.64.15-.15.33-.23.57-.23s.42.08.56.23c.14.16.2.37.2.64v.67zm-.4-.73a.6.6 0 0 0-.1-.37.33.33 0 0 0-.27-.13.33.33 0 0 0-.28.14.61.61 0 0 0-.1.37v.78c0 .16.03.28.1.37a.33.33 0 0 0 .28.14c.12 0 .21-.05.28-.14.06-.08.1-.21.1-.37v-.78zm2.28.73c0 .27-.07.49-.21.64a.71.71 0 0 1-.56.24.72.72 0 0 1-.56-.24.93.93 0 0 1-.21-.64v-.67c0-.27.07-.48.2-.64a.71.71 0 0 1 .57-.23c.23 0 .42.08.56.23.14.16.2.37.2.64v.67zm-.4-.73a.6.6 0 0 0-.1-.37.33.33 0 0 0-.27-.13.33.33 0 0 0-.28.14.61.61 0 0 0-.1.37v.78c0 .16.03.28.1.37a.33.33 0 0 0 .28.14c.12 0 .21-.05.28-.14a.62.62 0 0 0 .1-.37v-.78zm2.28.73c0 .27-.07.49-.21.64a.71.71 0 0 1-.56.24.72.72 0 0 1-.56-.24.92.92 0 0 1-.21-.64v-.67c0-.27.07-.48.2-.64.15-.15.33-.23.57-.23s.42.08.56.23c.14.16.21.37.21.64v.67zm-.4-.73a.6.6 0 0 0-.1-.37.33.33 0 0 0-.27-.13.33.33 0 0 0-.28.14.61.61 0 0 0-.1.37v.78c0 .16.03.28.1.37a.33.33 0 0 0 .28.14.33.33 0 0 0 .28-.14c.07-.08.1-.21.1-.37v-.78zm2.28.73c0 .27-.07.49-.2.64a.71.71 0 0 1-.57.24.72.72 0 0 1-.56-.24.93.93 0 0 1-.21-.64v-.67c0-.27.07-.48.2-.64.15-.15.34-.23.57-.23s.42.08.56.23c.14.16.21.37.21.64v.67zm-.4-.73a.6.6 0 0 0-.1-.37.33.33 0 0 0-.27-.13.33.33 0 0 0-.28.14.61.61 0 0 0-.1.37v.78c0 .16.03.28.1.37a.33.33 0 0 0 .28.14c.12 0 .21-.05.28-.14a.6.6 0 0 0 .1-.37v-.78zm1.21 1.57h-.39v-.37h.39v.37zm2-.84c0 .27-.07.49-.21.64a.71.71 0 0 1-.56.24.72.72 0 0 1-.56-.24.93.93 0 0 1-.22-.64v-.67c0-.27.07-.48.21-.64.14-.15.33-.23.56-.23s.43.08.57.23c.14.16.2.37.2.64v.67zm-.4-.73a.6.6 0 0 0-.1-.37.33.33 0 0 0-.28-.13.33.33 0 0 0-.28.14.61.61 0 0 0-.1.37v.78c0 .16.04.28.1.37a.33.33 0 0 0 .29.14.33.33 0 0 0 .28-.14c.06-.08.1-.21.1-.37v-.78zm2.06.73h.3v.32h-.3v.52h-.4v-.52h-.98v-.24l.97-1.59h.4v1.52zm-1 0h.6v-.96l-.04.1-.57.86zm3.1 0c0 .27-.07.49-.21.64a.71.71 0 0 1-.56.24.72.72 0 0 1-.56-.24.93.93 0 0 1-.21-.64v-.67c0-.27.07-.48.2-.64.15-.15.33-.23.57-.23s.42.08.56.23c.14.16.21.37.21.64v.67zm-.4-.73a.6.6 0 0 0-.1-.37.33.33 0 0 0-.27-.13.33.33 0 0 0-.28.14.61.61 0 0 0-.1.37v.78c0 .16.03.28.1.37a.33.33 0 0 0 .28.14c.12 0 .21-.05.28-.14.06-.08.1-.21.1-.37v-.78zm2.06.73h.3v.32h-.3v.52h-.39v-.52h-.99v-.24l.98-1.59h.4v1.52zm-1 0h.6v-.96l-.04.1-.56.86zm2.03.84h-.4v-.37h.4v.37zm2-.84c0 .27-.07.49-.21.64a.71.71 0 0 1-.56.24.72.72 0 0 1-.57-.24.93.93 0 0 1-.2-.64v-.67c0-.27.06-.48.2-.64.14-.15.33-.23.56-.23s.42.08.56.23c.15.16.22.37.22.64v.67zm-.4-.73a.6.6 0 0 0-.1-.37.33.33 0 0 0-.28-.13.33.33 0 0 0-.28.14.61.61 0 0 0-.1.37v.78c0 .16.04.28.1.37a.33.33 0 0 0 .29.14c.12 0 .21-.05.28-.14a.6.6 0 0 0 .1-.37v-.78zm2.28.73c0 .27-.07.49-.21.64a.71.71 0 0 1-.56.24.72.72 0 0 1-.56-.24.93.93 0 0 1-.21-.64v-.67c0-.27.07-.48.2-.64.15-.15.33-.23.57-.23s.42.08.56.23c.14.16.2.37.2.64v.67zm-.4-.73a.6.6 0 0 0-.1-.37.33.33 0 0 0-.28-.13.33.33 0 0 0-.28.14.61.61 0 0 0-.1.37v.78c0 .16.04.28.1.37a.33.33 0 0 0 .29.14.33.33 0 0 0 .28-.14c.06-.08.1-.21.1-.37v-.78zm-23.96-3.05h.01l.84-2.24h.62v2.9h-.48v-2.08h-.01l-.8 2.09h-.34l-.81-2.13h-.02v2.13h-.48v-2.91h.64l.83 2.23zm1.95-.43c0-.33.08-.6.26-.8a.9.9 0 0 1 .72-.3c.31 0 .56.1.73.3.18.2.27.47.27.8v.04c0 .32-.09.59-.27.8-.17.2-.42.3-.72.3a.9.9 0 0 1-.73-.3c-.18-.21-.27-.48-.27-.8v-.04zm.48.04a.96.96 0 0 0 .13.51c.08.13.2.2.38.2a.42.42 0 0 0 .38-.2.94.94 0 0 0 .13-.51v-.04a.94.94 0 0 0-.13-.51.42.42 0 0 0-.39-.2.42.42 0 0 0-.38.2.95.95 0 0 0-.12.5v.05zm1.83 0c0-.34.08-.62.22-.83s.36-.31.63-.31a.7.7 0 0 1 .31.07.71.71 0 0 1 .24.2v-1.19h.49v3.12h-.4l-.05-.28a.72.72 0 0 1-.25.24.7.7 0 0 1-.34.08c-.27 0-.48-.1-.62-.3s-.23-.44-.23-.75v-.05zm.49.05c0 .2.03.36.11.47.08.12.2.18.37.18a.48.48 0 0 0 .26-.06.5.5 0 0 0 .17-.2v-.93a.47.47 0 0 0-.43-.26.39.39 0 0 0-.37.21c-.08.14-.11.32-.11.55v.04zm2.83 1.05a.94.94 0 0 1-.73-.3c-.18-.2-.27-.46-.27-.78v-.08c0-.31.09-.57.27-.78a.86.86 0 0 1 .68-.3c.3 0 .51.09.66.26s.23.42.23.72v.26h-1.34v.01c0 .18.05.32.14.43.08.12.22.17.4.17a.98.98 0 0 0 .6-.18l.16.31a1.03 1.03 0 0 1-.33.19c-.13.05-.29.07-.47.07zm-.05-1.86a.38.38 0 0 0-.3.14.68.68 0 0 0-.14.36h.85v-.03c0-.14-.04-.25-.1-.34s-.17-.13-.3-.13zm1.8 1.82h-.49v-3.12h.49v3.12zm1.07-1.75h-.48v-.47h.48V25zm0 1.75h-.48v-.47h.48v.47zm3.17-.75a.38.38 0 0 0-.13-.3 1.2 1.2 0 0 0-.46-.2c-.31-.1-.55-.2-.72-.35a.68.68 0 0 1-.26-.55c0-.23.1-.42.28-.58.19-.15.43-.22.72-.22.32 0 .57.08.76.25.18.17.28.37.27.62v.01h-.47a.46.46 0 0 0-.16-.36.59.59 0 0 0-.4-.14.57.57 0 0 0-.38.12.38.38 0 0 0-.13.3c0 .1.05.2.14.27.1.08.26.14.49.2.3.1.53.2.7.36.15.15.23.33.23.56a.69.69 0 0 1-.28.58 1.2 1.2 0 0 1-.74.21c-.3 0-.56-.07-.78-.23a.75.75 0 0 1-.32-.67h.48c0 .17.06.3.18.39.12.08.26.13.44.13s.3-.04.4-.11a.35.35 0 0 0 .14-.3zm2.5.07h-1.04l-.22.68h-.5l1.01-2.91h.46l1 2.9h-.5l-.22-.67zm-.9-.4h.76l-.37-1.15h-.02l-.37 1.14zm2.46-.13v1.2h-.49v-2.9h1c.33 0 .58.07.76.22s.26.35.26.63c0 .15-.04.28-.11.38a.8.8 0 0 1-.34.26.61.61 0 0 1 .35.26c.07.11.1.26.1.43v.24c0 .09.02.17.04.25.02.09.05.15.1.19v.05h-.5a.32.32 0 0 1-.1-.21 1.8 1.8 0 0 1-.02-.28v-.23a.49.49 0 0 0-.13-.36.47.47 0 0 0-.35-.13h-.57zm0-.39h.49c.2 0 .34-.04.42-.11.1-.08.14-.19.14-.34a.45.45 0 0 0-.13-.35c-.1-.08-.22-.12-.4-.12h-.52v.92zm3.63.92h-1.03l-.22.68h-.5l1-2.91h.47l1 2.9h-.5l-.22-.67zm-.9-.4h.77l-.38-1.15-.39 1.14zm3.17.04h-1.18v-.4h1.18v.4zm2.85-1.87v1.91c0 .33-.1.58-.32.76-.21.19-.48.28-.82.28-.33 0-.6-.1-.8-.28a.96.96 0 0 1-.32-.76v-1.91h.49v1.91c0 .2.05.37.17.48a.63.63 0 0 0 .46.17.67.67 0 0 0 .48-.17c.12-.1.18-.27.18-.48v-1.91h.48zm2.4 2.9h-1.87v-.33l.9-1.05a2.41 2.41 0 0 0 .32-.43.72.72 0 0 0 .08-.32.44.44 0 0 0-.1-.3c-.07-.09-.17-.12-.3-.12a.42.42 0 0 0-.35.14.56.56 0 0 0-.12.37h-.46v-.01a.83.83 0 0 1 .24-.63c.17-.18.4-.26.69-.26.28 0 .5.07.65.22.16.15.24.35.24.59a.88.88 0 0 1-.13.46 5.2 5.2 0 0 1-.43.58l-.62.7h1.27v.4zm1.5-2.94a1.6 1.6 0 0 1 .6.12l-.09.37a1.25 1.25 0 0 0-.52-.1.52.52 0 0 0-.43.21.91.91 0 0 0-.16.57v.15a.83.83 0 0 1 .28-.18.95.95 0 0 1 .36-.07c.25 0 .45.09.6.26.13.17.2.4.2.67 0 .3-.08.54-.25.72s-.4.27-.68.27c-.29 0-.52-.1-.71-.31s-.28-.5-.28-.85V25c0-.36.1-.65.3-.87a1 1 0 0 1 .77-.33zm-.12 1.45a.63.63 0 0 0-.29.06.46.46 0 0 0-.19.17v.18c0 .23.05.41.14.54s.22.2.37.2a.39.39 0 0 0 .33-.17.72.72 0 0 0 .12-.43.6.6 0 0 0-.12-.4.43.43 0 0 0-.35-.15zm3.25.46c0 .33-.09.6-.26.79-.17.2-.4.29-.7.29a.9.9 0 0 1-.69-.3c-.17-.19-.26-.45-.26-.78v-.83c0-.33.09-.6.26-.8.17-.19.4-.28.7-.28.28 0 .51.1.69.29.17.2.26.46.26.79v.83zm-.49-.9c0-.2-.04-.35-.12-.46a.4.4 0 0 0-.35-.16c-.15 0-.26.05-.34.16s-.12.26-.12.46v.97c0 .2.04.35.12.46a.41.41 0 0 0 .35.16.4.4 0 0 0 .34-.16.77.77 0 0 0 .12-.46v-.97zm1.42-6.39c0 .27-.07.49-.21.64a.71.71 0 0 1-.56.24.72.72 0 0 1-.56-.24.93.93 0 0 1-.21-.64v-.66c0-.27.07-.49.2-.65.15-.15.33-.23.57-.23s.42.08.56.23c.14.16.2.37.2.65v.66zm-.4-.72a.6.6 0 0 0-.1-.37.33.33 0 0 0-.27-.14.33.33 0 0 0-.28.14.61.61 0 0 0-.1.37v.78c0 .16.03.28.1.37a.33.33 0 0 0 .28.13.33.33 0 0 0 .28-.13.62.62 0 0 0 .1-.37v-.79zm2.28.72c0 .27-.07.49-.21.64a.71.71 0 0 1-.56.24.72.72 0 0 1-.56-.24.93.93 0 0 1-.21-.64v-.66c0-.27.07-.49.2-.65a.71.71 0 0 1 .57-.23c.23 0 .42.08.56.23.14.16.2.37.2.65v.66zm-.4-.72a.6.6 0 0 0-.1-.37.33.33 0 0 0-.27-.14.33.33 0 0 0-.28.14.61.61 0 0 0-.1.37v.78c0 .16.03.28.1.37a.33.33 0 0 0 .28.13c.12 0 .21-.04.28-.13a.63.63 0 0 0 .1-.37v-.79zm2.06.96a.31.31 0 0 0-.1-.24.95.95 0 0 0-.38-.17 1.55 1.55 0 0 1-.58-.27.55.55 0 0 1-.2-.45c0-.19.07-.35.22-.47a.9.9 0 0 1 .58-.18c.25 0 .46.07.61.2a.63.63 0 0 1 .22.5v.02h-.38a.38.38 0 0 0-.13-.3.48.48 0 0 0-.33-.1c-.13 0-.23.02-.3.09s-.1.14-.1.24c0 .09.03.16.1.22.09.06.22.12.4.17.25.07.44.16.56.28.13.12.2.27.2.46 0 .2-.08.35-.23.47s-.36.17-.6.17c-.25 0-.45-.06-.63-.19a.6.6 0 0 1-.26-.54v-.01h.38c0 .14.05.25.15.32a.58.58 0 0 0 .36.1c.14 0 .24-.02.32-.08a.28.28 0 0 0 .12-.24zm1.75-.24h-.95v-.31h.95v.31zm1.98 0c0 .27-.07.49-.21.64a.71.71 0 0 1-.56.24.72.72 0 0 1-.57-.24.93.93 0 0 1-.2-.64v-.66c0-.27.06-.49.2-.65.14-.15.33-.23.56-.23s.42.08.56.23c.15.16.22.37.22.65v.66zm-.4-.72a.6.6 0 0 0-.1-.37.33.33 0 0 0-.28-.14.33.33 0 0 0-.28.14.61.61 0 0 0-.1.37v.78c0 .16.04.28.1.37a.33.33 0 0 0 .29.13.33.33 0 0 0 .28-.13.62.62 0 0 0 .1-.37v-.79zm2.28.72c0 .27-.07.49-.21.64a.71.71 0 0 1-.56.24.72.72 0 0 1-.56-.24.92.92 0 0 1-.22-.64v-.66c0-.27.07-.49.21-.65a.71.71 0 0 1 .56-.23c.24 0 .43.08.57.23.14.16.2.37.2.65v.66zm-.4-.72a.6.6 0 0 0-.1-.37.33.33 0 0 0-.27-.14.33.33 0 0 0-.28.14.61.61 0 0 0-.1.37v.78c0 .16.03.28.1.37a.33.33 0 0 0 .28.13.33.33 0 0 0 .28-.13.62.62 0 0 0 .1-.37v-.79zM54.4 15.57h-1.12v-.2l.54-.63c.09-.1.15-.2.18-.26a.43.43 0 0 0 .06-.2.26.26 0 0 0-.07-.17c-.04-.05-.1-.07-.17-.07a.26.26 0 0 0-.21.08.34.34 0 0 0-.07.22h-.28a.5.5 0 0 1 .14-.38.56.56 0 0 1 .42-.16c.16 0 .3.05.39.14.09.09.14.2.14.35 0 .1-.03.19-.08.27-.05.09-.14.2-.26.35l-.37.42h.76v.24zm1.37-.63c0 .2-.05.36-.15.48a.53.53 0 0 1-.42.17.53.53 0 0 1-.41-.17.68.68 0 0 1-.16-.48v-.49c0-.2.05-.36.16-.47a.53.53 0 0 1 .41-.18.53.53 0 0 1 .42.18c.1.11.15.27.15.47v.5zm-.29-.53a.45.45 0 0 0-.07-.28.24.24 0 0 0-.2-.1.24.24 0 0 0-.21.1.45.45 0 0 0-.08.28v.58c0 .11.03.2.08.27s.12.1.2.1a.24.24 0 0 0 .21-.1.46.46 0 0 0 .07-.27v-.58zm-11.42-1.82h.53c.18 0 .25.01.32.04.18.06.29.24.29.46 0 .22-.12.41-.31.47s.02.03.05.08l.37.67h-.28l-.36-.68h-.37v.68h-.24V12.6zm.59.83c.19 0 .3-.12.3-.32 0-.12-.05-.21-.13-.26-.05-.03-.1-.04-.24-.04h-.28v.62h.35zm14.98 2.14h-.28V14.1h-.38v-.23l.67-.06v1.76zm.69-.76l.1-.97h.91v.25h-.67l-.05.44a.49.49 0 0 1 .28-.09.47.47 0 0 1 .37.15c.1.1.14.25.14.43a.61.61 0 0 1-.15.42c-.09.1-.23.16-.42.16a.61.61 0 0 1-.39-.12.4.4 0 0 1-.15-.36l.27-.01a.25.25 0 0 0 .08.19.27.27 0 0 0 .19.07c.09 0 .16-.03.2-.1a.41.41 0 0 0 .08-.25.4.4 0 0 0-.08-.25.25.25 0 0 0-.2-.1.33.33 0 0 0-.18.04.22.22 0 0 0-.09.12l-.25-.02zm1.47.91h-.27l.68-1.88h.27l-.69 1.88zm1.62-.15h-.29V14.1h-.37v-.23l.66-.06v1.76zm1.19-1c.1 0 .16-.03.2-.07a.29.29 0 0 0 .07-.2.26.26 0 0 0-.07-.18c-.05-.05-.11-.08-.2-.08a.28.28 0 0 0-.19.07.23.23 0 0 0-.08.18h-.27a.4.4 0 0 1 .15-.34.6.6 0 0 1 .4-.14c.17 0 .3.04.4.13.1.08.14.2.14.36 0 .08-.02.15-.06.22a.44.44 0 0 1-.18.15.42.42 0 0 1 .2.16.45.45 0 0 1 .07.26.47.47 0 0 1-.16.37.62.62 0 0 1-.42.14.65.65 0 0 1-.4-.13.4.4 0 0 1-.16-.35v-.01h.28a.24.24 0 0 0 .08.18.3.3 0 0 0 .2.08.28.28 0 0 0 .21-.08.27.27 0 0 0 .08-.2c0-.1-.02-.17-.07-.22-.05-.05-.12-.08-.22-.08h-.2v-.22h.2zm11.89 2.97a.68.68 0 0 1-.53-.22.8.8 0 0 1-.2-.55v-.06c0-.23.07-.42.2-.57a.62.62 0 0 1 .5-.22c.2 0 .36.07.47.2.1.13.16.3.16.51v.2h-.96a.51.51 0 0 0 .1.31c.06.08.15.12.28.12a.7.7 0 0 0 .44-.13l.11.23a.74.74 0 0 1-.23.13.99.99 0 0 1-.34.05zm-.04-1.34a.27.27 0 0 0-.22.1.49.49 0 0 0-.1.26h.61v-.02a.4.4 0 0 0-.07-.24c-.04-.07-.12-.1-.22-.1zm2.06.56h.27v.28h-.27v.47h-.35v-.47h-.87v-.21l.86-1.42h.36v1.35zm-.89 0h.55v-.85h-.01l-.04.08-.5.77zm-45.04 1.41c0 .58-.13 1.04-.39 1.39a1.3 1.3 0 0 1-1.11.52c-.23 0-.43-.05-.6-.15a1.12 1.12 0 0 1-.21-.15.17.17 0 0 0-.28.09.17.17 0 0 1-.16.13h-.58a.17.17 0 0 1-.17-.16v-4.89a.16.16 0 0 1 .1-.15l.72-.3a.17.17 0 0 1 .23.16v1.47c0 .14.15.22.26.13a1.13 1.13 0 0 1 .68-.2c.49 0 .87.18 1.12.55.26.37.39.87.39 1.49v.07zm-1.04-.07c0-.38-.06-.68-.17-.9-.1-.22-.3-.33-.57-.33-.16 0-.3.03-.4.1a.7.7 0 0 0-.25.25.16.16 0 0 0-.02.08v1.56c0 .03 0 .06.02.08a.66.66 0 0 0 .24.23.86.86 0 0 0 .42.1c.27 0 .46-.1.57-.3.1-.18.16-.45.16-.8v-.07zm2.62 1.9h-.72a.17.17 0 0 1-.16-.16v-4.89a.16.16 0 0 1 .1-.15l.72-.3a.17.17 0 0 1 .22.16v5.18c0 .09-.07.16-.16.16zm.86-1.97c0-.58.17-1.05.49-1.42.32-.37.77-.56 1.34-.56.57 0 1.02.19 1.35.56.32.36.48.84.48 1.42v.07c0 .59-.16 1.06-.48 1.43a1.7 1.7 0 0 1-1.34.55c-.58 0-1.03-.19-1.35-.55s-.48-.84-.48-1.43v-.07zm1.05.07c0 .36.06.64.18.85.13.22.33.32.6.32.28 0 .47-.1.6-.32.12-.21.19-.5.19-.85v-.07c0-.35-.07-.63-.2-.85a.64.64 0 0 0-.6-.32.64.64 0 0 0-.59.33c-.12.22-.19.5-.19.84v.07zm4.64-.74h.02l.55-1.14a.17.17 0 0 1 .15-.1h.79c.13 0 .2.14.14.25l-.97 1.58a.17.17 0 0 0 0 .18l1 1.62a.17.17 0 0 1-.14.25h-.78a.17.17 0 0 1-.15-.09l-.44-.9a.17.17 0 0 0-.3 0l-.43.9a.17.17 0 0 1-.15.1h-.79a.17.17 0 0 1-.14-.26l1-1.62a.17.17 0 0 0 0-.17l-.96-1.58a.17.17 0 0 1 .14-.25H40c.07 0 .13.03.16.09l.53 1.14z"/><path d="M25.52 18.96a.05.05 0 0 0-.06-.03c-.25.1-.26.1-.45.22a1.32 1.32 0 0 1-.7.19c-.46 0-.8-.15-1.06-.46-.25-.3-.38-.77-.38-1.41V15h1.15v2.2c0 .37.05.63.15.77.1.13.26.2.47.2.18 0 .34-.03.47-.09a.54.54 0 0 0 .32-.5V15h1.15v2.49a4.53 4.53 0 1 0-1 1.61l-.06-.13zM21.4 15a.82.82 0 1 1 0-1.64.82.82 0 0 1 0 1.64z" fill="#c02432"/><path d="M23.5 45.29h-.29v-1.74h.3v1.74zm1.66-.57a.54.54 0 0 1-.16.43.68.68 0 0 1-.48.16.64.64 0 0 1-.49-.2.74.74 0 0 1-.19-.52v-.33a.75.75 0 0 1 .19-.53.62.62 0 0 1 .48-.2c.2 0 .37.05.49.15a.53.53 0 0 1 .17.43h-.29c0-.1-.03-.2-.09-.26s-.15-.1-.28-.1a.33.33 0 0 0-.28.15.58.58 0 0 0-.1.35v.33c0 .15.04.27.1.36a.34.34 0 0 0 .3.14c.11 0 .2-.03.26-.1.07-.05.1-.14.1-.26h.28zm.57-.48h-.29v-.27h.3v.27zm0 1.05h-.29v-.28h.3v.28zM27.77 44a.4.4 0 0 1-.07.23.46.46 0 0 1-.2.16.53.53 0 0 1 .24.16.4.4 0 0 1 .08.26.46.46 0 0 1-.16.37.63.63 0 0 1-.41.13.68.68 0 0 1-.43-.13.45.45 0 0 1-.17-.37c0-.1.03-.18.09-.26a.54.54 0 0 1 .23-.16.47.47 0 0 1-.2-.16.39.39 0 0 1-.07-.23c0-.15.05-.27.15-.35a.6.6 0 0 1 .4-.12c.15 0 .28.04.37.12.1.08.15.2.15.35zm-.29.01a.26.26 0 0 0-.07-.18.22.22 0 0 0-.16-.07.25.25 0 0 0-.19.07.24.24 0 0 0-.07.18c0 .08.03.14.07.2a.25.25 0 0 0 .19.06.21.21 0 0 0 .16-.07.27.27 0 0 0 .07-.19zm.05.79a.28.28 0 0 0-.28-.3.31.31 0 0 0-.22.09.27.27 0 0 0-.1.2c0 .1.04.16.1.21a.32.32 0 0 0 .22.08.28.28 0 0 0 .2-.07.28.28 0 0 0 .08-.21zm.59-.28l.1-.97h.91v.25h-.67l-.05.44a.48.48 0 0 1 .28-.08.47.47 0 0 1 .37.15c.1.1.14.24.14.42a.61.61 0 0 1-.15.42c-.09.11-.23.16-.42.16a.61.61 0 0 1-.39-.12.4.4 0 0 1-.15-.35l.27-.02a.25.25 0 0 0 .08.2.27.27 0 0 0 .19.06c.09 0 .16-.03.2-.09a.41.41 0 0 0 .07-.25.4.4 0 0 0-.07-.25.25.25 0 0 0-.2-.1.31.31 0 0 0-.18.04.22.22 0 0 0-.09.11l-.25-.02zm1.81.56c.1 0 .18-.03.25-.1s.09-.17.09-.3v-.13a.37.37 0 0 1-.32.16.5.5 0 0 1-.39-.15.62.62 0 0 1-.14-.43.61.61 0 0 1 .16-.44.52.52 0 0 1 .4-.17c.17 0 .31.06.42.17.1.12.16.28.16.48v.5c0 .2-.06.36-.18.47a.62.62 0 0 1-.45.17.96.96 0 0 1-.37-.07l.05-.22a.72.72 0 0 0 .32.06zm.05-.6a.34.34 0 0 0 .18-.04.3.3 0 0 0 .11-.11v-.2a.42.42 0 0 0-.08-.28.26.26 0 0 0-.21-.09.23.23 0 0 0-.2.1.44.44 0 0 0-.07.27c0 .1.02.2.07.26.05.07.11.1.2.1zm.92.04l.1-.97h.91v.25h-.67l-.06.44a.48.48 0 0 1 .28-.08.47.47 0 0 1 .38.15c.1.1.14.24.14.42a.61.61 0 0 1-.15.42c-.09.11-.23.16-.42.16a.61.61 0 0 1-.39-.12.4.4 0 0 1-.15-.35l.27-.02a.25.25 0 0 0 .08.2.27.27 0 0 0 .19.06c.09 0 .16-.03.2-.09a.41.41 0 0 0 .07-.25.4.4 0 0 0-.07-.25.25.25 0 0 0-.2-.1.31.31 0 0 0-.18.04.22.22 0 0 0-.09.11l-.25-.02zm2.28.36h-.61l-.14.41h-.3l.61-1.74h.28l.6 1.74h-.3l-.13-.4zm-.53-.24h.45l-.22-.68-.23.68zm1.89.03h-.7v-.24h.7v.24zm1.3.17a.23.23 0 0 0-.08-.17.71.71 0 0 0-.28-.13 1.16 1.16 0 0 1-.43-.2.4.4 0 0 1-.15-.33c0-.14.05-.25.16-.35a.66.66 0 0 1 .44-.13.65.65 0 0 1 .44.15c.12.1.17.22.17.37v.01h-.28a.28.28 0 0 0-.1-.22.35.35 0 0 0-.24-.08.33.33 0 0 0-.22.07.23.23 0 0 0-.08.18.2.2 0 0 0 .08.16.95.95 0 0 0 .3.13c.17.05.31.12.4.2.1.1.15.2.15.34a.41.41 0 0 1-.17.35.72.72 0 0 1-.44.13.77.77 0 0 1-.47-.14.45.45 0 0 1-.19-.4h.28c0 .1.04.17.11.23.07.05.16.08.27.08a.39.39 0 0 0 .24-.07.21.21 0 0 0 .08-.18zm1.49.04h-.62l-.14.41h-.3l.61-1.74h.28l.6 1.74h-.3l-.13-.4zm-.54-.24h.45l-.22-.68-.23.68zm1.47-.07v.72h-.29v-1.74h.6c.2 0 .34.05.45.13a.46.46 0 0 1 .16.38c0 .09-.03.16-.07.23a.48.48 0 0 1-.2.16c.1.03.16.08.2.15.05.07.07.15.07.26V45c0 .05 0 .1.02.15a.21.21 0 0 0 .06.11v.03h-.3a.19.19 0 0 1-.05-.12 1.08 1.08 0 0 1-.02-.17v-.14a.29.29 0 0 0-.08-.21.28.28 0 0 0-.2-.08h-.35zm0-.23h.3c.11 0 .2-.03.25-.07.05-.05.08-.11.08-.2a.27.27 0 0 0-.08-.21c-.05-.05-.13-.08-.24-.08h-.3v.55zm2.17.54h-.61l-.14.41h-.3l.6-1.74h.28l.6 1.74h-.3l-.13-.4zm-.53-.24h.45l-.22-.68-.23.68zm2.49-1.09v1.15a.57.57 0 0 1-.2.45.73.73 0 0 1-.48.17.7.7 0 0 1-.49-.17.57.57 0 0 1-.18-.45v-1.15h.29v1.15c0 .12.03.22.1.28.07.07.16.1.27.1.12 0 .22-.03.29-.1s.1-.16.1-.28v-1.15h.3zm1.43 1.74H42.7v-.2l.55-.63c.08-.1.15-.19.18-.26a.43.43 0 0 0 .05-.19.26.26 0 0 0-.06-.18.23.23 0 0 0-.18-.07.25.25 0 0 0-.2.09.34.34 0 0 0-.08.22h-.28v-.01a.5.5 0 0 1 .15-.38.56.56 0 0 1 .41-.15c.17 0 .3.04.4.13.08.09.13.2.13.35 0 .1-.02.19-.08.28-.05.08-.13.2-.25.34l-.37.42h.75v.24zm.9-1.76a.96.96 0 0 1 .36.07l-.06.22a.75.75 0 0 0-.3-.06.3.3 0 0 0-.26.13.54.54 0 0 0-.1.34v.09a.5.5 0 0 1 .17-.11.57.57 0 0 1 .21-.04c.15 0 .27.05.35.15a.61.61 0 0 1 .13.4.6.6 0 0 1-.15.43.54.54 0 0 1-.4.16.54.54 0 0 1-.43-.18.73.73 0 0 1-.17-.5v-.39c0-.2.06-.38.18-.52a.6.6 0 0 1 .46-.2zm-.07.86a.38.38 0 0 0-.18.04.28.28 0 0 0-.1.1v.1a.55.55 0 0 0 .08.33c.05.08.12.12.21.12a.23.23 0 0 0 .2-.1.43.43 0 0 0 .07-.25.36.36 0 0 0-.07-.25.26.26 0 0 0-.21-.09zm1.94.28c0 .2-.06.36-.16.47a.53.53 0 0 1-.41.17.53.53 0 0 1-.42-.17.68.68 0 0 1-.15-.47v-.5c0-.2.05-.35.15-.47a.53.53 0 0 1 .42-.17.53.53 0 0 1 .41.17c.1.12.16.28.16.48v.5zm-.3-.54a.45.45 0 0 0-.07-.27.24.24 0 0 0-.2-.1.24.24 0 0 0-.21.1.45.45 0 0 0-.07.27v.58c0 .12.02.21.07.28.05.06.12.1.2.1a.24.24 0 0 0 .21-.1.46.46 0 0 0 .08-.28v-.58zm15.13.76h.01l.5-1.34h.37v1.74H62v-1.25l-.48 1.25h-.2l-.49-1.27v1.27h-.3v-1.74h.39l.5 1.34zm2 .4a1.06 1.06 0 0 1-.04-.19.47.47 0 0 1-.16.15.4.4 0 0 1-.22.06c-.13 0-.23-.03-.3-.1s-.11-.16-.11-.28a.34.34 0 0 1 .14-.3c.1-.06.24-.1.42-.1h.23v-.11a.21.21 0 0 0-.06-.16c-.04-.04-.1-.06-.17-.06a.24.24 0 0 0-.16.05.15.15 0 0 0-.06.12h-.28c0-.1.04-.2.14-.27a.58.58 0 0 1 .37-.12c.15 0 .28.04.37.11.09.08.14.19.14.33v.57a.82.82 0 0 0 .04.3h-.3zm-.36-.2a.36.36 0 0 0 .2-.06.28.28 0 0 0 .12-.13v-.19h-.23a.29.29 0 0 0-.2.06.19.19 0 0 0-.07.15c0 .05.01.1.05.12.03.03.07.04.13.04zm.86-.43c0-.2.04-.37.13-.5a.43.43 0 0 1 .37-.19.4.4 0 0 1 .33.17v-.71h.3v1.86h-.24l-.04-.16a.43.43 0 0 1-.15.14.42.42 0 0 1-.2.05.44.44 0 0 1-.37-.18.73.73 0 0 1-.14-.45v-.03zm.29.03c0 .12.02.21.07.28.04.07.11.1.21.1a.29.29 0 0 0 .16-.03.3.3 0 0 0 .1-.11v-.57a.28.28 0 0 0-.25-.15c-.1 0-.17.04-.22.13a.66.66 0 0 0-.07.32v.03zm1.7.62a.56.56 0 0 1-.45-.18.67.67 0 0 1-.16-.46v-.05a.69.69 0 0 1 .16-.46.52.52 0 0 1 .41-.19c.17 0 .3.06.4.16a.65.65 0 0 1 .13.43v.16h-.8c0 .11.03.2.08.26.05.07.13.1.24.1a.59.59 0 0 0 .36-.1l.1.18a.61.61 0 0 1-.2.11.82.82 0 0 1-.28.05zm-.04-1.1a.22.22 0 0 0-.18.08.4.4 0 0 0-.08.21h.5v-.02a.33.33 0 0 0-.05-.2c-.04-.05-.1-.07-.19-.07zm1.72 1.08h-.3v-1.74h.3v1.74zm.62-1.3l.02.2a.46.46 0 0 1 .16-.16.42.42 0 0 1 .21-.06.4.4 0 0 1 .32.13c.07.08.1.2.1.39v.8h-.28v-.8c0-.1-.02-.17-.06-.22s-.1-.06-.18-.06a.35.35 0 0 0-.16.04.28.28 0 0 0-.1.1v.94h-.3v-1.3h.27zm2.66.9h-.61l-.13.4h-.3l.6-1.74h.28l.6 1.74H71l-.14-.4zm-.53-.25h.46l-.23-.68-.23.68zm1.94.46a.43.43 0 0 1-.15.16.41.41 0 0 1-.22.06.4.4 0 0 1-.32-.14c-.08-.1-.12-.23-.12-.43V44h.3v.76c0 .12.01.2.05.25.03.05.09.07.16.07s.13-.01.18-.04.09-.06.11-.1V44h.3v1.29h-.26l-.02-.19zm1.31-.16a.13.13 0 0 0-.06-.11.59.59 0 0 0-.21-.08.87.87 0 0 1-.35-.14.29.29 0 0 1-.12-.24c0-.11.04-.2.14-.28a.54.54 0 0 1 .36-.12c.15 0 .28.05.37.13a.34.34 0 0 1 .14.28h-.28a.18.18 0 0 0-.07-.13.23.23 0 0 0-.16-.06.24.24 0 0 0-.16.05.15.15 0 0 0-.06.11c0 .05.02.08.05.11a.57.57 0 0 0 .22.07.9.9 0 0 1 .35.14.3.3 0 0 1 .12.25c0 .12-.04.21-.14.28a.6.6 0 0 1-.38.11.58.58 0 0 1-.4-.13.36.36 0 0 1-.13-.29h.27c0 .07.03.12.08.16a.33.33 0 0 0 .19.05.3.3 0 0 0 .17-.05.14.14 0 0 0 .06-.11zm.92-1.26V44h.23v.21h-.23v.72c0 .05 0 .09.03.11a.13.13 0 0 0 .1.04.26.26 0 0 0 .08-.02l.03.21a.34.34 0 0 1-.08.04.48.48 0 0 1-.11 0 .33.33 0 0 1-.25-.09c-.06-.06-.1-.16-.1-.3v-.7h-.19V44h.2v-.31h.29zm1.1.58h-.12a.26.26 0 0 0-.14.03.24.24 0 0 0-.09.1v.9h-.29V44h.27l.02.2a.4.4 0 0 1 .12-.16.3.3 0 0 1 .27-.04l-.03.27zm.53-.58h-.29v-.25h.29v.25zm0 1.61h-.29v-1.3h.29v1.3zm1.1 0a1.06 1.06 0 0 1-.04-.19.47.47 0 0 1-.15.15.4.4 0 0 1-.22.06c-.14 0-.24-.03-.31-.1a.38.38 0 0 1-.11-.28.34.34 0 0 1 .15-.3c.1-.06.24-.1.41-.1h.23v-.11a.21.21 0 0 0-.06-.16c-.04-.04-.1-.06-.17-.06a.24.24 0 0 0-.16.05.15.15 0 0 0-.06.12h-.28c0-.1.04-.2.14-.27a.58.58 0 0 1 .38-.12c.15 0 .27.04.36.11.1.08.14.19.14.33v.57a.81.81 0 0 0 .04.3h-.29zm-.35-.2a.36.36 0 0 0 .2-.06.28.28 0 0 0 .11-.13v-.19h-.23a.29.29 0 0 0-.2.06.19.19 0 0 0-.07.15c0 .05.02.1.05.12a.21.21 0 0 0 .14.04zm.55-22.94h.72v.72h-.72zm-1.44 0h.72v.72H76zm-1.43 0h.72v.72h-.72zm-1.44 0h.72v.72h-.72zm-1.44 0h.72v.72h-.72zm0 5.75h.72v.72h-.72zm-1.44-5.75h.72v.72h-.72zm0 5.03h.72v.72h-.72zm-.71-1.43h.72v.72h-.72zm-.72-3.6h.72v.72h-.72zm-1.44 0h.72v.72h-.72zm10.8 10.79h.71v.72h-.72z"/><path d="M76 32.94v.72h.72v.75H72.4v-.72h-.72v.72h-.72v-.72h-2.15v-.75h-.72v1.47h-1.44v-.01h-.01V22.15h-.7v12.97h12.94v-.7h-1.45v-2.2h-.71v.72zm2.16-1.44h.72v.72h-.72z"/><path d="M77.43 31.5h.72v.72h-.72zm.73-1.44h.72v.72h-.72zm0-1.44h.72v.72h-.72zm-1.45 2.16h.72v-.72h.72v-.72h-1.44v-.72H76v-.7h-.71v.7h-.72v-.7h-.72v.7h-.72v1.44h1.44v-.72h-.72v-.7h.72v.7H76v1.44h-1.44v.72h1.43v.72h.73zm1.45-3.6h.72v.72h-.72zm-10.8 5.04v-.72h-.71v1.44h.72z"/><path d="M73.84 32.94v.72h.72v-.72h1.43v-.72h-2.87v.72zm-5.03-4.32h.72v.72h-.72zm9.35-5.75h.72v.72h-.72zm-5.04 4.31h-.72v.72h1.44v-1.44h-.72zm-.72-4.3h.72v.72h-.72zm-2.88 0H68.1v.72h.72v.72h1.43v.7h-.72v.72h2.16v-1.42h.72v-.72h-2.88zm-2.15 5.02h.72v.72h-.72zM68.09 27.18v.72h.72v-1.44h-1.44v.72z"/><path d="M67.37 25.04v.7h-.72v.73h.72v-.71h.72v-.72h.72v-.72h-1.44zm-.72 2.14h.72v.72h-.72zm1.44 3.6v.72h.72v1.44h.71v.72h2.16v-.72h-.72v-.72h-.72v-.72h.72v.72h.72v-.72h.72v.72h.72v-.72h.72v-.72h-2.16v-.72h.72v-.72h-1.44v.72h-1.44v.72h-.72v-1.44h-1.43v1.44zm-1.44-2.16h.72v.72h-.72zm0-5.74h.72v.72h-.72zm11.5 1.43v-.72h-.72v-.71h-.72v.71H76v-.71h-.71v.72h-.72v.71h-.72v-.71h-.72v2.14h.72v-.71h.72v.7h.72v-1.41H76v2.14h-1.44v1.44H76v-.72h.71v.72h.72v-.72h.73v-.72h.72v-.71h-.72v-.72h.72v-.72h-.73zm-.72 1.43h-.72v-.72h.72v.72zM57.4 39.43c0 1.22 1 2.21 2.21 2.21v-.69a1.52 1.52 0 0 1 0-3.04v-.69a2.21 2.21 0 0 0-2.2 2.21zm6.21-1.52v-.69a2.21 2.21 0 0 0 0 4.42v-.69a1.52 1.52 0 0 1-1.48-1.18h1.48v-.68h-1.48c.16-.68.76-1.18 1.48-1.18z"/><circle cx="18.89" cy="44.85" r="1.09"/><ellipse cx="77.3" cy="16.57" rx="2.99" ry="2.02" fill="none" stroke="#000" stroke-width=".24" stroke-miterlimit="10"/><path d="M69.98 16.86v.63h-.28v-1.67h.64c.18 0 .33.05.43.14.1.1.16.22.16.38a.48.48 0 0 1-.16.37c-.1.1-.24.14-.43.14h-.36zm0-.23h.36c.1 0 .18-.02.23-.08a.3.3 0 0 0 .08-.21.3.3 0 0 0-.08-.21c-.05-.06-.13-.09-.23-.09h-.36v.6zm2.28.28a.7.7 0 0 1-.13.44.42.42 0 0 1-.36.16.41.41 0 0 1-.2-.05.4.4 0 0 1-.14-.14l-.04.17h-.22V15.7h.28v.69a.4.4 0 0 1 .13-.12.4.4 0 0 1 .2-.04c.15 0 .27.06.35.18a.82.82 0 0 1 .13.48v.02zm-.28-.02a.64.64 0 0 0-.07-.32.22.22 0 0 0-.2-.12.28.28 0 0 0-.16.05.29.29 0 0 0-.1.11v.52c.02.05.05.09.1.12.04.02.09.04.15.04.1 0 .17-.04.21-.1a.5.5 0 0 0 .07-.28v-.02z"/><circle cx="70.89" cy="16.57" r="2" fill="none" stroke="#000" stroke-width=".24" stroke-miterlimit="10"/><path fill="none" stroke="#000" stroke-width=".24" stroke-miterlimit="10" d="M72.23 18.05l-2.7-2.95"/><circle cx="44.57" cy="13.46" r="1.41" fill="none" stroke="#000" stroke-width=".24" stroke-miterlimit="10"/><g fill="#cc9932"><path d="M3.93 52.54l-.34-1.6.34-.22.34.22zm-1.19-3.01l-.22.34-1.6-.34 1.6-.35zm4.2 0l-1.6.34-.22-.34.22-.35zm-2.67-1.41l-.34.22-.35-.22.35-1.6z"/><path d="M6.06 51.66l-2.13-1.38-2.13 1.38 1.38-2.13L1.8 47.4l2.13 1.38 2.13-1.38-1.38 2.13z"/></g><path fill="#CCC" d="M2.22 15.13h5.12v9.3H2.22zm5.12 3.52h1.94v2.08H7.34z"/><path d="M.96 22.93v-6.47c0-.28.23-.51.52-.51h6.46c.28 0 .51.23.51.5v6.48c0 .28-.23.5-.5.5H1.46a.51.51 0 0 1-.5-.5z" fill="#e5e5e5" stroke="#929292" stroke-width=".24" stroke-miterlimit="10"/><circle cx="4.8" cy="19.69" r="2.32" fill="#7b7b7b"/><circle cx="4.8" cy="19.69" r="2.03" fill="#e5e5e5"/><circle cx="4.8" cy="19.69" r=".53" fill="#cc9932"/><path fill="#666" d="M9.04 7.88h1.18v3.07H9.04zM88.68 20.2h1.18v3.06H88.7zm0 5.14h1.18v3.06H88.7zm12.01 0h1.18v3.06h-1.18zm0 8.62h1.18V37h-1.18zm11.25 2.26H115v1.18h-3.06zm-2.86 7.47h3.07v1.18h-3.07zm2.86-16.2H115v1.17h-3.06zm0-11.83h4.57v1.96h-4.57z"/><path fill="#CCC" d="M112 24.37h4.58v1.5H112z"/><path fill="#666" d="M122.8 8.02h1.95v4.57h-1.96zM87.14 48.95h3.07v1.18h-3.07zm14.41-8.78h3.06v1.18h-3.06zM5.59 28.26h3.07v1.18H5.59zm0 2.97h3.07v1.18H5.59zm0 5.55h3.07v1.18H5.59zm0 5.97h3.07v1.18H5.59zm.94-34.87h1.18v3.07H6.53zm-2.5 0h1.18v3.07H4.03zm-2.5 0h1.18v3.07H1.53z"/><path fill="#CCC" d="M92.28 10.3h1.56V22.1h-1.56zm4.45 0h1.56V22.1h-1.56z"/><path fill="#999" d="M90.96 11.07h8.63v10.25h-8.63z"/><circle cx="95.33" cy="16.24" r="2.52"/><circle cx="95.33" cy="16" r="2.28" fill="#404040"/><path fill="none" stroke="#b8b8b8" stroke-width=".32" stroke-miterlimit="10" d="M99.59 21.18h-8.63"/><path d="M97.61 16v.31c-.01.2-.06.49-.21.8a2.32 2.32 0 0 1-.77.9 2.41 2.41 0 0 1-1.31.4 2.42 2.42 0 0 1-1.3-.4 2.31 2.31 0 0 1-.76-.9 2.09 2.09 0 0 1-.21-.8v-.3s0 .1.04.3a2.36 2.36 0 0 0 1.05 1.52c.35.21.75.34 1.2.33a2.2 2.2 0 0 0 1.17-.33 2.37 2.37 0 0 0 1.05-1.52l.05-.3z" fill="#737373"/><path fill="#CCC" d="M92.28 35.43h1.56V47.2h-1.56zm4.45 0h1.56V47.2h-1.56z"/><path fill="#999" d="M90.96 36.2h8.63v10.24h-8.63z"/><circle cx="95.33" cy="41.36" r="2.52"/><circle cx="95.33" cy="41.13" r="2.28" fill="#404040"/><path fill="none" stroke="#b8b8b8" stroke-width=".32" stroke-miterlimit="10" d="M99.59 46.3h-8.63"/><path d="M97.61 41.13v.3c-.01.2-.06.49-.21.8a2.32 2.32 0 0 1-.77.9 2.41 2.41 0 0 1-1.31.4 2.42 2.42 0 0 1-1.3-.4 2.31 2.31 0 0 1-.76-.9 2.09 2.09 0 0 1-.21-.8v-.3s0 .1.04.3a2.36 2.36 0 0 0 1.05 1.52c.35.21.75.34 1.2.33.4 0 .84-.12 1.17-.33a2.37 2.37 0 0 0 1.05-1.52l.05-.3z" fill="#737373"/><path fill="#e6e6e6" d="M146.19 30.72h-15.17v5.58h.44v8.39h-.44v5.57h15.17z"/><path fill="#666" d="M129.32 36.3h1.7v1h-1.7zm0 1.84h1.7v1h-1.7zm0 1.85h1.7v1h-1.7zm0 1.84h1.7v1.01h-1.7zm0 1.85h1.7v1h-1.7z"/><path fill="none" stroke="#929292" stroke-width=".16" stroke-miterlimit="10" d="M131.02 37.3h-1.7m1.7 1.85h-1.7m1.7 1.84h-1.7m1.7 1.85h-1.7m1.7 1.85h-1.7"/><path fill="#b2b2b2" d="M145.86 50.25l1.4 1.06v-.44l-.4-.62z"/><path fill="#c3c3c3" d="M147.26 50.9v-.03l-.4-.62h-.69z"/><path fill="#b2b2b2" d="M145.86 30.71l1.4-1.06v.45l-.4.62z"/><path fill="#c3c3c3" d="M147.26 30.07v.02l-.4.62h-.69z"/><path fill="#b2b2b2" d="M145.39 31.75h.8v17.48h-.8z"/><path fill="#cfcfcf" d="M145.86 31.75h.33v17.48h-.33z"/><path fill="#b3b3b3" d="M131.02 34.1h1.47v1.65h-1.47zm5.96 0h7.1v1.65h-7.1z"/><path fill="#262626" d="M131.02 35.21h1.47v.54h-1.47z"/><ellipse cx="142.11" cy="34.93" rx="1.34" ry="1.52" fill="#b3b3b3"/><path fill="#b3b3b3" d="M131.02 45.23h1.47v1.65h-1.47zm5.96 0h7.1v1.65h-7.1z"/><path fill="#262626" d="M131.02 45.23h1.47v.54h-1.47z"/><path fill="#f2f2f2" d="M146.19 50.26v-.17l-14.72-1.28v1.45z"/><path fill="#999" d="M146.19 30.72v.17l-14.72 1.28v-1.45z"/><path d="M142.11 36.45c.47 0 .89-.28 1.13-.7h.84v-.54h-7.1v.54h4c.24.42.65.7 1.13.7zm0 8.1c.47 0 .89.27 1.13.7h.84v.53h-7.1v-.54h4c.24-.42.65-.7 1.13-.7z" fill="#333"/><path fill="#666" d="M109.5 17.96l.74-.61V12.7l-.74-.62v-1.07h-6.89v1.07l-.74.62v4.64l.74.61v1.08h6.89z"/><path fill="#bfbfbf" d="M95.94 25.3h2.1V32h-2.1zm-3.44 0h2.1V32h-2.1z"/><path d="M91.99 25.57h6.57v6.17h-6.57z"/><path fill="#e5e5e5" d="M95.27 31.18l2.23-.3.3-2.22-.3-2.23-2.23-.3-2.22.3-.3 2.22.3 2.23z"/><path d="M95.21 30v-1.2h-1.18v.02c0 .65.53 1.18 1.18 1.18z" fill="#00a637"/><path d="M94 28.66h1.22v-1.19h-.03c-.65 0-1.18.53-1.18 1.19z" fill="#1b5bb3"/><path d="M95.35 27.47v1.2h1.2v-.02c0-.65-.54-1.18-1.2-1.18z" fill="#b2b2b2"/><path d="M96.55 28.82h-1.21V30h.02c.66 0 1.19-.53 1.19-1.18z" fill="#cc1314"/><path d="M113.23 12.36h3.71v1h-3.71zm0-3.58h3.71V9.8h-3.71zm0 1.79h3.71v1.01h-3.71z" fill="#CCC"/><path fill="#CCC" d="M115.08 8.06h3.72v6.03h-3.71z"/><path fill="#666" d="M114.29 8.29h5.3v5.57h-5.3z"/><path d="M114.23 43.54h5.1v1h-5.1zm0-3.53h5.1v1h-5.1zm0 1.76h5.1v1h-5.1z" fill="#CCC"/><path fill="#666" d="M115.3 39.52h8.08v5.5h-8.08z"/><path fill="#CCC" d="M112.18 45.79h8.14v2.7h-8.14z"/><path fill="#666" d="M114.48 45.79h3.53v2.7h-3.53z"/><path fill="#CCC" d="M112.18 30.96h8.14v2.7h-8.14z"/><path fill="#666" d="M114.48 30.96h3.53v2.7h-3.53z"/><path d="M106.12 57.53V44.75a2.4 2.4 0 0 0-1.25-2.1v.78h-2.3v-.79a2.4 2.4 0 0 0-1.25 2.11v12.7" fill="#00a9f3"/><path fill="#918c70" d="M131.1 11.35h10.3v12.98h-10.3z"/><path fill="#7f7a60" d="M131.1 11.35h7.28v12.98h-7.29z"/><path fill="#a09c85" d="M133.07 13.12h5.3v3.96h-5.3zm0 5.48h5.3v3.95h-5.3z"/><path fill="#7f7744" d="M140.25 16.43h3.34v2.83h-3.34z"/><path fill="#d6d4c8" d="M131.1 27.32v-1.08h3.77v-1.91h-3.78V11.35h3.78V9.44h-3.78V8.35h1.8V6.82h-4.78v22.04h4.78v-1.54zm13.2-1.96h-1v-2.81h1v-9.42h-1v-2.82h1v-3.5h-4.7v1.54h1.8v1.09h-3.86v1.9h3.86v1.79h-1.15v3.3h3.34v2.82h-3.34v3.3h1.15v1.78h-3.86v1.9h3.87v1.1h-1.8v1.53h4.7z"/><path fill="#bab7a0" d="M134.32 17.08l.8-3.96h3.26v3.96zm0 5.47l.8-3.95h3.26v3.95z"/><circle cx="136.85" cy="15.28" r=".94" fill="#666"/><circle cx="136.85" cy="14.92" r=".94" fill="#CCC"/><circle cx="136.85" cy="20.66" r=".94" fill="#666"/><circle cx="136.85" cy="20.31" r=".94" fill="#CCC"/><path fill="#918c70" d="M138.38 16.43h5.23v2.82h-5.23z"/><path fill="#7f7a60" d="M136.25 11.35h5.23v1.78h-5.23zm0 11.2h5.23v1.78h-5.23z"/><path fill="#666" d="M121.27 14.08h6.22v2.69h-6.22z"/><path fill="#CCC" d="M122.31 14.54h5.18v1.78h-5.18z"/><path fill="#666" d="M121.27 18.91h6.22v2.68h-6.22z"/><path fill="#CCC" d="M122.31 19.36h5.18v1.78h-5.18z"/><path fill="#404040" d="M138.43 11.35h2.17v1.78h-2.17zm0 11.2h2.17v1.78h-2.17z"/><path d="M140.58 11.35h1v1.78h-1zm-1.16 1.78h1v3.3h-1zm1.16-4.78h1v1.09h-1zm-1.8-1.53h1v1.53h-1zm-2.06 2.62h1v1.9h-1zm2.7 9.8h1v3.3h-1zm1.16 7h1v1.08h-1zm-1.8 1.08h1v1.54h-1zm-2.06-2.99h1v1.9h-1zm3.86-1.78h1v1.78h-1zm-13.2-15.73h1.72v22.03h-1.71z" fill="#bab7a0"/><g fill="#666"><circle cx="125.78" cy="23.42" r=".72"/><circle cx="125.78" cy="26.32" r=".72"/><circle cx="125.78" cy="29.23" r=".72"/><circle cx="122.89" cy="23.42" r=".72"/><circle cx="122.89" cy="26.32" r=".72"/><circle cx="122.89" cy="29.23" r=".72"/><circle cx="128.81" cy="49.25" r=".72"/><circle cx="128.81" cy="46.35" r=".72"/><circle cx="128.97" cy="32.44" r=".72"/><circle cx="119.99" cy="23.42" r=".72"/><circle cx="119.99" cy="26.32" r=".72"/><circle cx="119.99" cy="29.23" r=".72"/><circle cx="121.14" cy="36.65" r=".72"/><circle cx="118.25" cy="36.65" r=".72"/><circle cx="108.87" cy="46.51" r=".72"/><circle cx="108.87" cy="40.92" r=".72"/><circle cx="108.87" cy="37.87" r=".72"/><circle cx="109.89" cy="33.93" r=".72"/><circle cx="108.87" cy="27.66" r=".72"/><circle cx="105.97" cy="27.66" r=".72"/><circle cx="108.87" cy="24.61" r=".72"/><circle cx="89.15" cy="34.66" r=".72"/><circle cx="89.15" cy="31.6" r=".72"/><circle cx="105.97" cy="24.61" r=".72"/><circle cx="108.87" cy="21.49" r=".72"/><circle cx="105.97" cy="21.49" r=".72"/></g><circle cx="103.78" cy="44.66" r="2.35" fill="#00a9f3"/><path fill="#CCC" d="M102.87 43.36h1.77v3.6h-1.77z"/><path d="M135.94 57.54v-5.58c0-.71.58-1.29 1.3-1.29h4.28c.71 0 1.3.58 1.3 1.29v5.58h-6.87z" fill="#00a9f3"/><path fill="#666" d="M125.8 47.72h1.17v3.06h-1.18z"/><path d="M103.32 31.56h1v2.17h-1zm3.57 0h1.01v2.17h-1.01zm-1.79 0h1.01v2.17h-1zm1.79 2.83h1.01v2.17h-1.01zm-3.53 0h1v2.17h-1z" fill="#CCC"/><path fill="#666" d="M102.82 32.56h5.57v3.1h-5.57z"/><circle cx="103.7" cy="54.38" r="2.23" fill="#b2b2b2"/><circle cx="132.49" cy="54.38" r="2.23" fill="#b2b2b2"/><path fill="#b2b2b2" d="M130.26 54.38h4.47v3.15h-4.47z"/><path d="M133.66 56.3a2.23 2.23 0 0 0-1.17-4.15 2.23 2.23 0 0 0-1.16 4.14" fill="#b2b2b2"/><path fill="#CCC" d="M131.72 53.62h1.54v1.54h-1.54z"/><path d="M132.35 54.38c1.26.66 2.13 2.4 2.38 3.15v-3.15c0-.76-.39-1.43-.97-1.83a3.46 3.46 0 0 1-1.4 1.83z" fill="#999"/><path d="M131.72 53.62v1.54h.07c.23-.3.52-.57.84-.77a3.52 3.52 0 0 1-.84-.78h-.07z" fill="#999"/><circle cx="132.49" cy="54.38" r=".36" fill="#cbcbcb" stroke="#999" stroke-width=".08" stroke-miterlimit="10"/><path d="M104.86 56.3a2.23 2.23 0 0 0-1.16-4.15 2.23 2.23 0 0 0-1.17 4.14" fill="#b2b2b2"/><path fill="#CCC" d="M102.93 53.62h1.54v1.54h-1.54z"/><path d="M102.93 53.62v1.54h.07c.23-.3.52-.57.84-.77a3.52 3.52 0 0 1-.84-.78h-.07z" fill="#999"/><circle cx="103.7" cy="54.38" r=".36" fill="#cbcbcb" stroke="#999" stroke-width=".08" stroke-miterlimit="10"/><circle cx="125.33" cy="54.42" r="2.23" fill="#b2b2b2"/><path fill="#b2b2b2" d="M123.1 54.42h4.47v3.15h-4.47z"/><path d="M126.5 56.33a2.23 2.23 0 0 0-1.17-4.15 2.23 2.23 0 0 0-1.16 4.15" fill="#b2b2b2"/><path fill="#CCC" d="M124.56 53.65h1.54v1.54h-1.54z"/><path d="M125.2 54.42c1.25.65 2.12 2.39 2.37 3.15v-3.15c0-.76-.38-1.44-.97-1.84a3.46 3.46 0 0 1-1.4 1.84z" fill="#999"/><path d="M124.56 53.65v1.54h.07c.24-.3.52-.56.84-.77a3.54 3.54 0 0 1-.84-.77h-.07z" fill="#999"/><circle cx="125.33" cy="54.42" r=".36" fill="#cbcbcb" stroke="#999" stroke-width=".08" stroke-miterlimit="10"/><circle cx="118.18" cy="54.38" r="2.23" fill="#b2b2b2"/><path fill="#b2b2b2" d="M115.94 54.38h4.47v3.15h-4.47z"/><path d="M119.34 56.3a2.23 2.23 0 0 0-1.16-4.15 2.23 2.23 0 0 0-1.17 4.14" fill="#b2b2b2"/><path fill="#CCC" d="M117.4 53.62h1.55v1.54h-1.54z"/><path d="M118.04 54.38c1.25.66 2.13 2.4 2.37 3.15v-3.15c0-.76-.38-1.43-.96-1.83a3.46 3.46 0 0 1-1.41 1.83z" fill="#999"/><path d="M117.4 53.62v1.54h.07c.24-.3.52-.57.84-.77a3.48 3.48 0 0 1-.84-.78h-.06z" fill="#999"/><circle cx="118.18" cy="54.38" r=".36" fill="#cbcbcb" stroke="#999" stroke-width=".08" stroke-miterlimit="10"/><circle cx="111.02" cy="54.38" r="2.23" fill="#b2b2b2"/><path fill="#b2b2b2" d="M108.78 54.38h4.47v3.15h-4.47z"/><path d="M112.18 56.3a2.23 2.23 0 0 0-1.16-4.15 2.23 2.23 0 0 0-1.17 4.14" fill="#b2b2b2"/><path fill="#CCC" d="M110.25 53.62h1.54v1.54h-1.54z"/><path d="M110.88 54.38c1.25.66 2.13 2.4 2.37 3.15v-3.15c0-.76-.38-1.43-.96-1.83a3.46 3.46 0 0 1-1.4 1.83z" fill="#999"/><path d="M110.25 53.62v1.54h.07c.23-.3.51-.57.84-.77a3.47 3.47 0 0 1-.84-.78h-.07z" fill="#999"/><circle cx="111.02" cy="54.38" r=".36" fill="#cbcbcb" stroke="#999" stroke-width=".08" stroke-miterlimit="10"/><circle cx="103.7" cy="54.38" r="2.23" fill="#b2b2b2"/><path fill="#b2b2b2" d="M101.46 54.38h4.47v3.15h-4.47z"/><path d="M104.86 56.3a2.23 2.23 0 0 0-1.16-4.15 2.23 2.23 0 0 0-1.17 4.14" fill="#b2b2b2"/><path fill="#CCC" d="M102.93 53.62h1.54v1.54h-1.54z"/><path d="M103.56 54.38c1.26.66 2.13 2.4 2.37 3.15v-3.15c0-.76-.38-1.43-.96-1.83a3.46 3.46 0 0 1-1.4 1.83z" fill="#999"/><path d="M102.93 53.62v1.54h.07c.23-.3.52-.57.84-.77a3.52 3.52 0 0 1-.84-.78h-.07z" fill="#999"/><circle cx="103.7" cy="54.38" r=".36" fill="#cbcbcb" stroke="#999" stroke-width=".08" stroke-miterlimit="10"/><circle cx="96.7" cy="54.39" r="2.23" fill="#b2b2b2"/><path fill="#b2b2b2" d="M94.47 54.39h4.47v3.15h-4.47z"/><path d="M97.87 56.3a2.23 2.23 0 0 0-1.17-4.14 2.23 2.23 0 0 0-1.16 4.14" fill="#b2b2b2"/><path fill="#CCC" d="M95.93 53.62h1.54v1.54h-1.54z"/><path d="M96.57 54.39c1.25.66 2.12 2.39 2.37 3.15v-3.15c0-.76-.38-1.43-.97-1.84a3.46 3.46 0 0 1-1.4 1.84z" fill="#999"/><path d="M95.93 53.62v1.54H96c.23-.3.52-.56.84-.77a3.42 3.42 0 0 1-.84-.77h-.07z" fill="#999"/><circle cx="96.7" cy="54.39" r=".36" fill="#cbcbcb" stroke="#999" stroke-width=".08" stroke-miterlimit="10"/><circle cx="89.54" cy="54.38" r="2.23" fill="#b2b2b2"/><path fill="#b2b2b2" d="M87.31 54.38h4.47v3.15h-4.47z"/><path d="M90.71 56.3a2.23 2.23 0 0 0-1.17-4.15 2.23 2.23 0 0 0-1.16 4.14" fill="#b2b2b2"/><path fill="#CCC" d="M88.78 53.62h1.54v1.54h-1.54z"/><path d="M89.4 54.38c1.26.66 2.13 2.4 2.38 3.15v-3.15c0-.76-.38-1.43-.96-1.83a3.46 3.46 0 0 1-1.41 1.83z" fill="#999"/><path d="M88.78 53.62v1.54h.06c.24-.3.52-.57.84-.77a3.47 3.47 0 0 1-.84-.78h-.06z" fill="#999"/><circle cx="89.54" cy="54.38" r=".36" fill="#cbcbcb" stroke="#999" stroke-width=".08" stroke-miterlimit="10"/><circle cx="82.39" cy="54.38" r="2.23" fill="#b2b2b2"/><path fill="#b2b2b2" d="M80.15 54.38h4.47v3.15h-4.47z"/><path d="M83.55 56.3a2.23 2.23 0 0 0-1.16-4.15 2.23 2.23 0 0 0-1.17 4.14" fill="#b2b2b2"/><path fill="#CCC" d="M81.62 53.62h1.54v1.54h-1.54z"/><path d="M82.25 54.38c1.25.66 2.13 2.4 2.37 3.15v-3.15c0-.76-.38-1.43-.96-1.83a3.46 3.46 0 0 1-1.41 1.83z" fill="#999"/><path d="M81.62 53.62v1.54h.06c.24-.3.52-.57.84-.77a3.54 3.54 0 0 1-.84-.78h-.06z" fill="#999"/><circle cx="82.39" cy="54.38" r=".36" fill="#cbcbcb" stroke="#999" stroke-width=".08" stroke-miterlimit="10"/><g><circle cx="68.07" cy="54.38" r="2.23" fill="#b2b2b2"/><path fill="#b2b2b2" d="M65.84 54.38h4.47v3.15h-4.47z"/><path d="M69.24 56.3a2.23 2.23 0 0 0-1.17-4.15 2.23 2.23 0 0 0-1.16 4.14" fill="#b2b2b2"/><path fill="#CCC" d="M67.3 53.62h1.54v1.54H67.3z"/><path d="M67.94 54.38c1.25.66 2.12 2.4 2.37 3.15v-3.15c0-.76-.38-1.43-.97-1.83a3.46 3.46 0 0 1-1.4 1.83z" fill="#999"/><path d="M67.3 53.62v1.54h.07c.23-.3.52-.57.84-.77a3.47 3.47 0 0 1-.84-.78h-.07z" fill="#999"/><circle cx="68.07" cy="54.38" r=".36" fill="#cbcbcb" stroke="#999" stroke-width=".08" stroke-miterlimit="10"/></g><g><circle cx="75.23" cy="54.38" r="2.23" fill="#b2b2b2"/><path fill="#b2b2b2" d="M73 54.38h4.46v3.15H73z"/><path d="M76.4 56.3a2.23 2.23 0 0 0-1.17-4.15 2.23 2.23 0 0 0-1.17 4.14" fill="#b2b2b2"/><path fill="#CCC" d="M74.46 53.62H76v1.54h-1.54z"/><path d="M75.1 54.38c1.25.66 2.12 2.4 2.36 3.15v-3.15c0-.76-.38-1.43-.96-1.83a3.46 3.46 0 0 1-1.4 1.83z" fill="#999"/><path d="M74.46 53.62v1.54h.07c.23-.3.51-.57.84-.77a3.48 3.48 0 0 1-.84-.78h-.07z" fill="#999"/><circle cx="75.23" cy="54.38" r=".36" fill="#cbcbcb" stroke="#999" stroke-width=".08" stroke-miterlimit="10"/></g><g><circle cx="60.91" cy="54.38" r="2.23" fill="#b2b2b2"/><path fill="#b2b2b2" d="M58.68 54.38h4.47v3.15h-4.47z"/><path d="M62.08 56.3a2.23 2.23 0 0 0-1.17-4.15 2.23 2.23 0 0 0-1.16 4.14" fill="#b2b2b2"/><path fill="#CCC" d="M60.14 53.62h1.54v1.54h-1.54z"/><path d="M60.78 54.38c1.25.66 2.12 2.4 2.37 3.15v-3.15c0-.76-.38-1.43-.97-1.83a3.46 3.46 0 0 1-1.4 1.83z" fill="#999"/><path d="M60.14 53.62v1.54h.07c.23-.3.52-.57.84-.77a3.52 3.52 0 0 1-.84-.78h-.07z" fill="#999"/><circle cx="60.91" cy="54.38" r=".36" fill="#cbcbcb" stroke="#999" stroke-width=".08" stroke-miterlimit="10"/></g><g><circle cx="53.76" cy="54.38" r="2.23" fill="#b2b2b2"/><path fill="#b2b2b2" d="M51.52 54.38h4.47v3.15h-4.47z"/><path d="M54.92 56.3a2.23 2.23 0 0 0-1.17-4.15 2.23 2.23 0 0 0-1.16 4.14" fill="#b2b2b2"/><path fill="#CCC" d="M52.99 53.62h1.54v1.54h-1.54z"/><path d="M53.62 54.38c1.25.66 2.12 2.4 2.37 3.15v-3.15a2.23 2.23 0 0 0-.96-1.83 3.46 3.46 0 0 1-1.41 1.83z" fill="#999"/><path d="M52.99 53.62v1.54h.06c.24-.3.52-.57.84-.77a3.52 3.52 0 0 1-.84-.78H53z" fill="#999"/><circle cx="53.76" cy="54.38" r=".36" fill="#cbcbcb" stroke="#999" stroke-width=".08" stroke-miterlimit="10"/></g><g><circle cx="46.6" cy="54.4" r="2.23" fill="#b2b2b2"/><path fill="#b2b2b2" d="M44.36 54.4h4.47v3.15h-4.47z"/><path d="M47.76 56.31a2.23 2.23 0 0 0-1.16-4.14 2.23 2.23 0 0 0-1.17 4.14" fill="#b2b2b2"/><path fill="#CCC" d="M45.83 53.63h1.54v1.54h-1.54z"/><path d="M46.46 54.4c1.25.66 2.13 2.4 2.37 3.15V54.4c0-.76-.38-1.43-.96-1.83a3.46 3.46 0 0 1-1.41 1.83z" fill="#999"/><path d="M45.83 53.63v1.54h.06a3.44 3.44 0 0 1 .84-.77 3.52 3.52 0 0 1-.84-.77h-.06z" fill="#999"/><circle cx="46.6" cy="54.4" r=".36" fill="#cbcbcb" stroke="#999" stroke-width=".08" stroke-miterlimit="10"/></g><g><circle cx="39.44" cy="54.38" r="2.23" fill="#b2b2b2"/><path fill="#b2b2b2" d="M37.2 54.38h4.47v3.15H37.2z"/><path d="M40.6 56.3a2.23 2.23 0 0 0-1.16-4.15 2.23 2.23 0 0 0-1.17 4.14" fill="#b2b2b2"/><path fill="#CCC" d="M38.67 53.62h1.54v1.54h-1.54z"/><path d="M39.3 54.38c1.26.66 2.13 2.4 2.38 3.15v-3.15c0-.76-.39-1.43-.97-1.83a3.46 3.46 0 0 1-1.4 1.83z" fill="#999"/><path d="M38.67 53.62v1.54h.07c.23-.3.52-.57.84-.77a3.54 3.54 0 0 1-.84-.78h-.07z" fill="#999"/><circle cx="39.44" cy="54.38" r=".36" fill="#cbcbcb" stroke="#999" stroke-width=".08" stroke-miterlimit="10"/></g><g><circle cx="32.28" cy="54.38" r="2.23" fill="#b2b2b2"/><path fill="#b2b2b2" d="M30.05 54.38h4.47v3.15h-4.47z"/><path d="M33.45 56.3a2.23 2.23 0 0 0-1.17-4.15 2.23 2.23 0 0 0-1.16 4.14" fill="#b2b2b2"/><path fill="#CCC" d="M31.51 53.62h1.54v1.54h-1.54z"/><path d="M32.15 54.38c1.25.66 2.12 2.4 2.37 3.15v-3.15c0-.76-.39-1.43-.97-1.83a3.46 3.46 0 0 1-1.4 1.83z" fill="#999"/><path d="M31.51 53.62v1.54h.07c.23-.3.52-.57.84-.77a3.54 3.54 0 0 1-.84-.78h-.07z" fill="#999"/><circle cx="32.28" cy="54.38" r=".36" fill="#cbcbcb" stroke="#999" stroke-width=".08" stroke-miterlimit="10"/></g><g><circle cx="25.12" cy="54.38" r="2.23" fill="#b2b2b2"/><path fill="#b2b2b2" d="M22.89 54.38h4.47v3.15h-4.47z"/><path d="M26.29 56.3a2.23 2.23 0 0 0-1.17-4.15 2.23 2.23 0 0 0-1.16 4.14" fill="#b2b2b2"/><path fill="#CCC" d="M24.35 53.62h1.54v1.54h-1.54z"/><path d="M24.99 54.38c1.25.66 2.12 2.4 2.37 3.15v-3.15c0-.76-.38-1.43-.96-1.83a3.46 3.46 0 0 1-1.41 1.83z" fill="#999"/><path d="M24.35 53.62v1.54h.07c.24-.3.52-.57.84-.77a3.54 3.54 0 0 1-.84-.78h-.07z" fill="#999"/><circle cx="25.12" cy="54.38" r=".36" fill="#cbcbcb" stroke="#999" stroke-width=".08" stroke-miterlimit="10"/></g><g><circle cx="17.97" cy="54.38" r="2.23" fill="#b2b2b2"/><path fill="#b2b2b2" d="M15.73 54.38h4.47v3.15h-4.47z"/><path d="M19.13 56.3a2.23 2.23 0 0 0-1.16-4.15 2.23 2.23 0 0 0-1.17 4.14" fill="#b2b2b2"/><path fill="#CCC" d="M17.2 53.62h1.54v1.54H17.2z"/><path d="M17.83 54.38c1.25.66 2.13 2.4 2.37 3.15v-3.15c0-.76-.38-1.43-.96-1.83a3.46 3.46 0 0 1-1.41 1.83z" fill="#999"/><path d="M17.2 53.62v1.54h.06c.24-.3.52-.57.84-.77a3.52 3.52 0 0 1-.84-.78h-.06z" fill="#999"/><circle cx="17.97" cy="54.38" r=".36" fill="#cbcbcb" stroke="#999" stroke-width=".08" stroke-miterlimit="10"/></g><g><circle cx="10.81" cy="54.4" r="2.23" fill="#b2b2b2"/><path fill="#b2b2b2" d="M8.57 54.4h4.47v3.15H8.57z"/><path d="M11.97 56.31a2.23 2.23 0 0 0-1.16-4.14 2.23 2.23 0 0 0-1.17 4.14" fill="#b2b2b2"/><path fill="#CCC" d="M10.04 53.63h1.54v1.54h-1.54z"/><path d="M10.67 54.4c1.25.66 2.13 2.4 2.37 3.15V54.4c0-.76-.38-1.43-.96-1.83a3.46 3.46 0 0 1-1.4 1.83z" fill="#999"/><path d="M10.04 53.63v1.54h.07a3.44 3.44 0 0 1 .83-.77 3.52 3.52 0 0 1-.84-.77h-.06z" fill="#999"/><circle cx="10.81" cy="54.4" r=".36" fill="#cbcbcb" stroke="#999" stroke-width=".08" stroke-miterlimit="10"/></g><g><circle cx="103.7" cy="3.27" r="2.23" fill="#b2b2b2"/><circle cx="132.49" cy="3.27" r="2.23" fill="#b2b2b2"/><path fill="#b2b2b2" d="M130.26.12h4.47v3.15h-4.47z"/><path d="M133.66 1.36a2.23 2.23 0 0 1-1.17 4.14 2.23 2.23 0 0 1-1.16-4.14" fill="#b2b2b2"/><path fill="#CCC" d="M131.72 2.5h1.54v1.54h-1.54z"/><path d="M132.35 3.27c1.26-.66 2.13-2.4 2.38-3.15v3.15a2.23 2.23 0 0 1-.97 1.83 3.46 3.46 0 0 0-1.4-1.83z" fill="#999"/><path d="M131.72 4.04V2.5h.07c.23.3.52.56.84.77-.32.2-.6.47-.84.77h-.07z" fill="#999"/><circle cx="132.49" cy="3.27" r=".36" fill="#cbcbcb" stroke="#999" stroke-width=".08" stroke-miterlimit="10"/><path d="M104.86 1.36a2.23 2.23 0 0 1-1.16 4.14 2.23 2.23 0 0 1-1.17-4.14" fill="#b2b2b2"/><path fill="#CCC" d="M102.93 2.5h1.54v1.54h-1.54z"/><path d="M102.93 4.04V2.5h.07c.23.3.52.56.84.77-.32.2-.6.47-.84.77h-.07z" fill="#999"/><circle cx="103.7" cy="3.27" r=".36" fill="#cbcbcb" stroke="#999" stroke-width=".08" stroke-miterlimit="10"/><circle cx="125.33" cy="3.23" r="2.23" fill="#b2b2b2"/><path fill="#b2b2b2" d="M123.1.08h4.47v3.15h-4.47z"/><path d="M126.5 1.33a2.23 2.23 0 0 1-1.17 4.14 2.23 2.23 0 0 1-1.16-4.14" fill="#b2b2b2"/><path fill="#CCC" d="M124.56 2.46h1.54V4h-1.54z"/><path d="M125.2 3.23c1.25-.65 2.12-2.39 2.37-3.15v3.15c0 .77-.38 1.44-.97 1.84a3.46 3.46 0 0 0-1.4-1.84z" fill="#999"/><path d="M124.56 4V2.46h.07c.24.3.52.57.84.77-.32.21-.6.47-.84.77h-.07z" fill="#999"/><circle cx="125.33" cy="3.23" r=".36" fill="#cbcbcb" stroke="#999" stroke-width=".08" stroke-miterlimit="10"/><circle cx="118.18" cy="3.27" r="2.23" fill="#b2b2b2"/><path fill="#b2b2b2" d="M115.94.12h4.47v3.15h-4.47z"/><path d="M119.34 1.36a2.23 2.23 0 0 1-1.16 4.14A2.23 2.23 0 0 1 117 1.36" fill="#b2b2b2"/><path fill="#CCC" d="M117.4 2.5h1.55v1.54h-1.54z"/><path d="M118.04 3.27c1.25-.66 2.13-2.4 2.37-3.15v3.15c0 .76-.38 1.43-.96 1.83a3.46 3.46 0 0 0-1.41-1.83z" fill="#999"/><path d="M117.4 4.04V2.5h.07c.24.3.52.56.84.77-.32.2-.6.47-.84.77h-.06z" fill="#999"/><circle cx="118.18" cy="3.27" r=".36" fill="#cbcbcb" stroke="#999" stroke-width=".08" stroke-miterlimit="10"/><circle cx="111.02" cy="3.27" r="2.23" fill="#b2b2b2"/><path fill="#b2b2b2" d="M108.78.12h4.47v3.15h-4.47z"/><path d="M112.18 1.36a2.23 2.23 0 0 1-1.16 4.14 2.23 2.23 0 0 1-1.17-4.14" fill="#b2b2b2"/><path fill="#CCC" d="M110.25 2.5h1.54v1.54h-1.54z"/><path d="M110.88 3.27c1.25-.66 2.13-2.4 2.37-3.15v3.15c0 .76-.38 1.43-.96 1.83a3.46 3.46 0 0 0-1.4-1.83z" fill="#999"/><path d="M110.25 4.04V2.5h.07c.23.3.51.56.84.77-.33.2-.61.47-.84.77h-.07z" fill="#999"/><circle cx="111.02" cy="3.27" r=".36" fill="#cbcbcb" stroke="#999" stroke-width=".08" stroke-miterlimit="10"/><circle cx="103.7" cy="3.27" r="2.23" fill="#b2b2b2"/><path fill="#b2b2b2" d="M101.46.12h4.47v3.15h-4.47z"/><path d="M104.86 1.36a2.23 2.23 0 0 1-1.16 4.14 2.23 2.23 0 0 1-1.17-4.14" fill="#b2b2b2"/><path fill="#CCC" d="M102.93 2.5h1.54v1.54h-1.54z"/><path d="M103.56 3.27c1.26-.66 2.13-2.4 2.37-3.15v3.15c0 .76-.38 1.43-.96 1.83a3.46 3.46 0 0 0-1.4-1.83z" fill="#999"/><path d="M102.93 4.04V2.5h.07c.23.3.52.56.84.77-.32.2-.6.47-.84.77h-.07z" fill="#999"/><circle cx="103.7" cy="3.27" r=".36" fill="#cbcbcb" stroke="#999" stroke-width=".08" stroke-miterlimit="10"/><circle cx="96.7" cy="3.26" r="2.23" fill="#b2b2b2"/><path fill="#b2b2b2" d="M94.47.11h4.47v3.15h-4.47z"/><path d="M97.87 1.35A2.23 2.23 0 0 1 96.7 5.5a2.23 2.23 0 0 1-1.16-4.15" fill="#b2b2b2"/><path fill="#CCC" d="M95.93 2.5h1.54v1.53h-1.54z"/><path d="M96.57 3.26c1.25-.65 2.12-2.39 2.37-3.15v3.15c0 .76-.38 1.44-.97 1.84a3.46 3.46 0 0 0-1.4-1.84z" fill="#999"/><path d="M95.93 4.03V2.5H96c.23.3.52.56.84.77-.32.21-.6.47-.84.77h-.07z" fill="#999"/><circle cx="96.7" cy="3.26" r=".36" fill="#cbcbcb" stroke="#999" stroke-width=".08" stroke-miterlimit="10"/><circle cx="89.54" cy="3.27" r="2.23" fill="#b2b2b2"/><path fill="#b2b2b2" d="M87.31.12h4.47v3.15h-4.47z"/><path d="M90.71 1.36a2.23 2.23 0 0 1-1.17 4.14 2.23 2.23 0 0 1-1.16-4.14" fill="#b2b2b2"/><path fill="#CCC" d="M88.78 2.5h1.54v1.54h-1.54z"/><path d="M89.4 3.27c1.26-.66 2.13-2.4 2.38-3.15v3.15a2.23 2.23 0 0 1-.96 1.83 3.46 3.46 0 0 0-1.41-1.83z" fill="#999"/><path d="M88.78 4.04V2.5h.06c.24.3.52.56.84.77-.32.2-.6.47-.84.77h-.06z" fill="#999"/><circle cx="89.54" cy="3.27" r=".36" fill="#cbcbcb" stroke="#999" stroke-width=".08" stroke-miterlimit="10"/><circle cx="82.39" cy="3.27" r="2.23" fill="#b2b2b2"/><path fill="#b2b2b2" d="M80.15.12h4.47v3.15h-4.47z"/><path d="M83.55 1.36a2.23 2.23 0 0 1-1.16 4.14 2.23 2.23 0 0 1-1.17-4.14" fill="#b2b2b2"/><path fill="#CCC" d="M81.62 2.5h1.54v1.54h-1.54z"/><path d="M82.25 3.27C83.5 2.6 84.38.87 84.62.12v3.15a2.23 2.23 0 0 1-.96 1.83 3.46 3.46 0 0 0-1.41-1.83z" fill="#999"/><path d="M81.62 4.04V2.5h.06c.24.3.52.56.84.77-.32.2-.6.47-.84.77h-.06z" fill="#999"/><circle cx="82.39" cy="3.27" r=".36" fill="#cbcbcb" stroke="#999" stroke-width=".08" stroke-miterlimit="10"/><g><circle cx="68.07" cy="3.27" r="2.23" fill="#b2b2b2"/><path fill="#b2b2b2" d="M65.84.12h4.47v3.15h-4.47z"/><path d="M69.24 1.36a2.23 2.23 0 0 1-1.17 4.14 2.23 2.23 0 0 1-1.16-4.14" fill="#b2b2b2"/><path fill="#CCC" d="M67.3 2.5h1.54v1.54H67.3z"/><path d="M67.94 3.27C69.19 2.6 70.06.87 70.3.12v3.15c0 .76-.38 1.43-.97 1.83a3.46 3.46 0 0 0-1.4-1.83z" fill="#999"/><path d="M67.3 4.04V2.5h.07c.23.3.52.56.84.77-.32.2-.6.47-.84.77h-.07z" fill="#999"/><circle cx="68.07" cy="3.27" r=".36" fill="#cbcbcb" stroke="#999" stroke-width=".08" stroke-miterlimit="10"/></g><g><circle cx="75.23" cy="3.27" r="2.23" fill="#b2b2b2"/><path fill="#b2b2b2" d="M73 .12h4.46v3.15H73z"/><path d="M76.4 1.36a2.23 2.23 0 0 1-1.17 4.14 2.23 2.23 0 0 1-1.17-4.14" fill="#b2b2b2"/><path fill="#CCC" d="M74.46 2.5H76v1.54h-1.54z"/><path d="M75.1 3.27c1.25-.66 2.12-2.4 2.36-3.15v3.15c0 .76-.38 1.43-.96 1.83a3.46 3.46 0 0 0-1.4-1.83z" fill="#999"/><path d="M74.46 4.04V2.5h.07c.23.3.51.56.84.77-.33.2-.6.47-.84.77h-.07z" fill="#999"/><circle cx="75.23" cy="3.27" r=".36" fill="#cbcbcb" stroke="#999" stroke-width=".08" stroke-miterlimit="10"/></g><g><circle cx="60.91" cy="3.27" r="2.23" fill="#b2b2b2"/><path fill="#b2b2b2" d="M58.68.12h4.47v3.15h-4.47z"/><path d="M62.08 1.36A2.23 2.23 0 0 1 60.9 5.5a2.23 2.23 0 0 1-1.16-4.14" fill="#b2b2b2"/><path fill="#CCC" d="M60.14 2.5h1.54v1.54h-1.54z"/><path d="M60.78 3.27C62.03 2.6 62.9.87 63.15.12v3.15c0 .76-.38 1.43-.97 1.83a3.46 3.46 0 0 0-1.4-1.83z" fill="#999"/><path d="M60.14 4.04V2.5h.07c.23.3.52.56.84.77-.32.2-.6.47-.84.77h-.07z" fill="#999"/><circle cx="60.91" cy="3.27" r=".36" fill="#cbcbcb" stroke="#999" stroke-width=".08" stroke-miterlimit="10"/></g><g><circle cx="53.76" cy="3.27" r="2.23" fill="#b2b2b2"/><path fill="#b2b2b2" d="M51.52.12h4.47v3.15h-4.47z"/><path d="M54.92 1.36a2.23 2.23 0 0 1-1.17 4.14 2.23 2.23 0 0 1-1.16-4.14" fill="#b2b2b2"/><path fill="#CCC" d="M52.99 2.5h1.54v1.54h-1.54z"/><path d="M53.62 3.27c1.25-.66 2.12-2.4 2.37-3.15v3.15c0 .76-.38 1.43-.96 1.83a3.46 3.46 0 0 0-1.41-1.83z" fill="#999"/><path d="M52.99 4.04V2.5h.06c.24.3.52.56.84.77-.32.2-.6.47-.84.77H53z" fill="#999"/><circle cx="53.76" cy="3.27" r=".36" fill="#cbcbcb" stroke="#999" stroke-width=".08" stroke-miterlimit="10"/></g><g><circle cx="46.6" cy="3.25" r="2.23" fill="#b2b2b2"/><path fill="#b2b2b2" d="M44.36.1h4.47v3.15h-4.47z"/><path d="M47.76 1.34a2.23 2.23 0 0 1-1.16 4.14 2.23 2.23 0 0 1-1.17-4.14" fill="#b2b2b2"/><path fill="#CCC" d="M45.83 2.48h1.54v1.54h-1.54z"/><path d="M46.46 3.25C47.71 2.59 48.59.86 48.83.1v3.15c0 .76-.38 1.43-.96 1.84a3.46 3.46 0 0 0-1.41-1.84z" fill="#999"/><path d="M45.83 4.02V2.48h.06c.24.3.52.56.84.77-.32.2-.6.47-.84.77h-.06z" fill="#999"/><circle cx="46.6" cy="3.25" r=".36" fill="#cbcbcb" stroke="#999" stroke-width=".08" stroke-miterlimit="10"/></g><g><circle cx="39.44" cy="3.27" r="2.23" fill="#b2b2b2"/><path fill="#b2b2b2" d="M37.2.12h4.47v3.15H37.2z"/><path d="M40.6 1.36a2.23 2.23 0 0 1-1.16 4.14 2.23 2.23 0 0 1-1.17-4.14" fill="#b2b2b2"/><path fill="#CCC" d="M38.67 2.5h1.54v1.54h-1.54z"/><path d="M39.3 3.27c1.26-.66 2.13-2.4 2.38-3.15v3.15a2.23 2.23 0 0 1-.97 1.83 3.46 3.46 0 0 0-1.4-1.83z" fill="#999"/><path d="M38.67 4.04V2.5h.07c.23.3.52.56.84.77-.32.2-.6.47-.84.77h-.07z" fill="#999"/><circle cx="39.44" cy="3.27" r=".36" fill="#cbcbcb" stroke="#999" stroke-width=".08" stroke-miterlimit="10"/></g><g><circle cx="32.28" cy="3.27" r="2.23" fill="#b2b2b2"/><path fill="#b2b2b2" d="M30.05.12h4.47v3.15h-4.47z"/><path d="M33.45 1.36a2.23 2.23 0 0 1-1.17 4.14 2.23 2.23 0 0 1-1.16-4.14" fill="#b2b2b2"/><path fill="#CCC" d="M31.51 2.5h1.54v1.54h-1.54z"/><path d="M32.15 3.27C33.4 2.6 34.27.87 34.52.12v3.15c0 .76-.39 1.43-.97 1.83a3.46 3.46 0 0 0-1.4-1.83z" fill="#999"/><path d="M31.51 4.04V2.5h.07c.23.3.52.56.84.77-.32.2-.6.47-.84.77h-.07z" fill="#999"/><circle cx="32.28" cy="3.27" r=".36" fill="#cbcbcb" stroke="#999" stroke-width=".08" stroke-miterlimit="10"/></g><g><circle cx="25.12" cy="3.27" r="2.23" fill="#b2b2b2"/><path fill="#b2b2b2" d="M22.89.12h4.47v3.15h-4.47z"/><path d="M26.29 1.36a2.23 2.23 0 0 1-1.17 4.14 2.23 2.23 0 0 1-1.16-4.14" fill="#b2b2b2"/><path fill="#CCC" d="M24.35 2.5h1.54v1.54h-1.54z"/><path d="M24.99 3.27C26.24 2.6 27.1.87 27.36.12v3.15c0 .76-.38 1.43-.96 1.83a3.46 3.46 0 0 0-1.41-1.83z" fill="#999"/><path d="M24.35 4.04V2.5h.07c.24.3.52.56.84.77-.32.2-.6.47-.84.77h-.07z" fill="#999"/><circle cx="25.12" cy="3.27" r=".36" fill="#cbcbcb" stroke="#999" stroke-width=".08" stroke-miterlimit="10"/></g><g><circle cx="17.97" cy="3.27" r="2.23" fill="#b2b2b2"/><path fill="#b2b2b2" d="M15.73.12h4.47v3.15h-4.47z"/><path d="M19.13 1.36a2.23 2.23 0 0 1-1.16 4.14 2.23 2.23 0 0 1-1.17-4.14" fill="#b2b2b2"/><path fill="#CCC" d="M17.2 2.5h1.54v1.54H17.2z"/><path d="M17.83 3.27C19.08 2.6 19.96.87 20.2.12v3.15c0 .76-.38 1.43-.96 1.83a3.46 3.46 0 0 0-1.41-1.83z" fill="#999"/><path d="M17.2 4.04V2.5h.06c.24.3.52.56.84.77-.32.2-.6.47-.84.77h-.06z" fill="#999"/><circle cx="17.97" cy="3.27" r=".36" fill="#cbcbcb" stroke="#999" stroke-width=".08" stroke-miterlimit="10"/></g><g><circle cx="10.81" cy="3.25" r="2.23" fill="#b2b2b2"/><path fill="#b2b2b2" d="M8.57.1h4.47v3.15H8.57z"/><path d="M11.97 1.34a2.23 2.23 0 0 1-1.16 4.14 2.23 2.23 0 0 1-1.17-4.14" fill="#b2b2b2"/><path fill="#CCC" d="M10.04 2.48h1.54v1.54h-1.54z"/><path d="M10.67 3.25C11.92 2.59 12.8.86 13.04.1v3.15c0 .76-.38 1.43-.96 1.84a3.46 3.46 0 0 0-1.4-1.84z" fill="#999"/><path d="M10.04 4.02V2.48h.07c.23.3.51.56.83.77-.32.2-.6.47-.84.77h-.06z" fill="#999"/><circle cx="10.81" cy="3.25" r=".36" fill="#cbcbcb" stroke="#999" stroke-width=".08" stroke-miterlimit="10"/></g></g><g fill="#00a9f3"><path d="M128.36 52.2a.8.8 0 0 0-.1.4c0 .3.19.4.34.4.25 0 .35-.23.35-.46v-.14h.18v.14c0 .17.1.4.3.4.15 0 .27-.1.27-.32a.65.65 0 0 0-.12-.35l.18-.07a.84.84 0 0 1 .14.47c0 .35-.21.5-.43.5-.18 0-.34-.1-.42-.32-.04.22-.2.4-.46.4-.28 0-.53-.23-.53-.66 0-.2.06-.37.12-.46l.19.07zm-.27 1.84l1.84-.6v.25l-.9.3a9.56 9.56 0 0 1-.7.19l.69.21.91.31v.26l-1.84-.66v-.26zm.27 1.09a.8.8 0 0 0-.1.4c0 .3.19.4.34.4.25 0 .35-.23.35-.46v-.14h.18v.14c0 .17.1.4.3.4.15 0 .27-.1.27-.32a.65.65 0 0 0-.12-.35l.18-.07a.84.84 0 0 1 .14.47c0 .35-.21.5-.43.5-.18 0-.34-.1-.42-.32-.04.22-.2.4-.46.4-.28 0-.53-.23-.53-.65 0-.2.06-.38.12-.46l.19.06z"/></g><g fill="#00a9f3"><path d="M125.53 36.64c.02.1.03.24.03.38 0 .27-.06.45-.17.58a.65.65 0 0 1-.51.2.75.75 0 0 1-.55-.2c-.13-.14-.2-.36-.2-.63l.01-.33h1.4zm-1.25.18a1.15 1.15 0 0 0 0 .18c0 .4.21.6.6.6.32 0 .54-.18.54-.57a.93.93 0 0 0-.02-.21h-1.12zm.97 1.75h-.49v.47h-.12v-.47h-.5v-.14h.5v-.47h.12v.47h.5v.14z"/></g><g fill="#00a9f3"><path d="M125.53 44.43c.02.11.03.25.03.39 0 .26-.06.45-.17.57a.65.65 0 0 1-.51.2.75.75 0 0 1-.55-.2c-.13-.13-.2-.35-.2-.63l.01-.33h1.4zm-1.25.18v.19c0 .39.21.6.6.6.32 0 .54-.19.54-.57a.94.94 0 0 0-.02-.22h-1.12zm.5 1.67h-.14v-.52h.13v.52z"/></g><g fill="#00a9f3"><path d="M122.73 52.38c.02.12.03.3.03.46 0 .25-.04.42-.15.53a.46.46 0 0 1-.35.15.48.48 0 0 1-.47-.35c-.05.14-.19.23-.38.27-.25.06-.43.1-.5.14v-.24c.05-.03.2-.07.44-.13.25-.05.35-.15.36-.37v-.22h-.8v-.24h1.82zm-.84.24v.24c0 .26.14.42.35.42.23 0 .34-.17.34-.43a.98.98 0 0 0-.02-.23h-.67zm-.7 1.2a.84.84 0 0 0-.11.43c0 .24.13.38.31.38.17 0 .27-.1.37-.34.1-.3.26-.5.52-.5.29 0 .5.25.5.6 0 .2-.04.33-.09.41l-.2-.06a.73.73 0 0 0 .1-.35c0-.25-.16-.35-.28-.35-.18 0-.26.1-.36.36-.12.32-.27.47-.54.47-.28 0-.53-.2-.53-.64 0-.18.05-.37.12-.47l.2.06zm1.36 1.73v-.56h.2v1.36h-.2v-.56h-1.64v-.24h1.64z"/></g><g fill="#00a9f3"><path d="M113.73 51.13l1.84-.6v.26l-.9.29-.7.2c.22.05.45.13.7.2l.9.32v.25l-1.84-.66v-.26zm1.82 1.13c.02.1.04.26.04.43 0 .24-.04.39-.14.5a.39.39 0 0 1-.32.16c-.18 0-.34-.12-.4-.31h-.01c-.05.17-.2.38-.46.38a.5.5 0 0 1-.37-.16c-.12-.13-.18-.33-.18-.63 0-.17.01-.3.03-.37h1.8zm-.76.23v.22c0 .25.14.4.31.4.22 0 .3-.17.3-.4l-.01-.22h-.6zm-.88 0a1.27 1.27 0 0 0-.01.2c0 .25.09.48.36.48.25 0 .35-.22.35-.48v-.2h-.7zm.4 1.55l-.58-.2v-.24l1.84.62v.3l-1.84.62v-.25l.58-.2v-.65zm.19.6l.53-.18.33-.1a5.54 5.54 0 0 1-.33-.1l-.54-.17v.55zm.87.91v-.56h.2v1.36h-.2v-.56h-1.64v-.24h1.64z"/></g><g fill="#00a9f3"><path d="M106.63 52.58a1.72 1.72 0 0 1-.1-.57c0-.28.07-.51.25-.7.15-.15.4-.25.68-.25.55 0 .95.38.95 1 0 .21-.04.38-.08.46l-.2-.06a.94.94 0 0 0 .08-.4c0-.45-.28-.74-.74-.74-.47 0-.74.28-.74.7 0 .16.02.27.05.32h.55v-.37h.19v.6h-.89zm-.08.36h1.84v.26l-.93.59a4.99 4.99 0 0 1-.6.33c.25-.02.47-.02.76-.02h.77v.22h-1.84v-.24l.94-.58a5.86 5.86 0 0 1 .61-.35l-.76.01h-.79v-.22zm1.82 1.8c.02.14.04.32.04.5 0 .35-.08.59-.23.75a.85.85 0 0 1-.66.26c-.3 0-.55-.1-.72-.26-.17-.18-.27-.46-.27-.82 0-.17.01-.3.03-.43h1.81zm-1.63.24l-.01.24c0 .5.28.78.78.78.43 0 .7-.24.7-.74 0-.13 0-.22-.02-.28h-1.45z"/></g><g fill="#00a9f3"><path d="M94.01 53.34c.02.14.04.31.04.5 0 .34-.08.59-.23.75a.85.85 0 0 1-.66.26c-.3 0-.55-.1-.72-.27-.17-.17-.26-.45-.26-.81 0-.17 0-.32.02-.44H94zm-1.63.23l-.01.24c0 .51.28.79.78.79.44 0 .71-.25.71-.75 0-.12 0-.21-.02-.28h-1.46zm1.42 2.52a.87.87 0 0 0 0-.18.72.72 0 0 0-.64-.62.53.53 0 0 1 .2.44c0 .31-.22.53-.57.53-.33 0-.63-.22-.63-.59 0-.38.3-.63.76-.63.35 0 .63.13.8.3a.97.97 0 0 1 .27.57v.18h-.19zm-1.02-.07c.25 0 .4-.15.4-.37a.4.4 0 0 0-.21-.34.2.2 0 0 0-.11-.03c-.3 0-.51.14-.51.4 0 .2.17.34.43.34z"/></g><g fill="#00a9f3"><path d="M86.83 53.34c.03.14.04.31.04.5 0 .34-.08.59-.23.75a.85.85 0 0 1-.66.26c-.3 0-.55-.1-.72-.27-.17-.17-.26-.45-.26-.81 0-.17 0-.32.02-.44h1.81zm-1.63.23a1.63 1.63 0 0 0-.01.24c0 .51.28.79.78.79.44 0 .71-.25.71-.75 0-.12 0-.21-.02-.28H85.2zm1.39 2.56v-.67l-.46-.07.01.14c0 .14-.03.28-.1.39a.5.5 0 0 1-.45.25c-.35 0-.6-.28-.6-.66a.87.87 0 0 1 .1-.44l.19.06a.8.8 0 0 0-.1.38c0 .22.15.42.38.42s.4-.16.4-.51l-.02-.25.85.11v.85h-.2z"/></g><g fill="#00a9f3"><path d="M79.66 53.34c.02.14.03.31.03.5 0 .34-.08.59-.23.75a.85.85 0 0 1-.66.26c-.3 0-.55-.1-.71-.27-.18-.17-.27-.45-.27-.81 0-.17 0-.32.02-.44h1.82zm-1.63.23l-.02.24c0 .51.29.79.78.79.44 0 .71-.25.71-.75 0-.12 0-.21-.02-.28h-1.45zm-.2 2.25h.49v-.83h.16l1.13.8v.25h-1.1v.25h-.19v-.25h-.48v-.22zm.68 0h.87a5.03 5.03 0 0 1-.26-.15l-.6-.44h-.01v.59z"/></g><g fill="#00a9f3"><path d="M72.48 53.34c.02.14.03.31.03.5 0 .34-.08.59-.23.75a.85.85 0 0 1-.66.26c-.3 0-.54-.1-.71-.27-.18-.17-.27-.45-.27-.81l.02-.44h1.82zm-1.63.23l-.02.24c0 .51.29.79.79.79.43 0 .7-.25.7-.75 0-.12 0-.21-.02-.28h-1.45zm.08 1.56a.8.8 0 0 0-.1.4c0 .3.19.4.34.4.25 0 .35-.23.35-.46v-.14h.18v.14c0 .17.1.4.3.4.15 0 .27-.1.27-.32a.65.65 0 0 0-.12-.35l.18-.07a.84.84 0 0 1 .14.47c0 .35-.21.5-.43.5-.18 0-.34-.1-.42-.32-.05.22-.2.4-.46.4-.28 0-.53-.23-.53-.65 0-.2.06-.38.12-.46l.19.06z"/></g><g fill="#00a9f3"><path d="M65.3 53.34c.02.14.04.31.04.5 0 .34-.08.59-.23.75a.86.86 0 0 1-.67.26c-.3 0-.54-.1-.71-.27-.17-.17-.27-.45-.27-.81l.02-.44h1.82zm-1.63.23a1.63 1.63 0 0 0-.02.24c0 .51.29.79.79.79.43 0 .7-.25.7-.75 0-.12 0-.21-.02-.28h-1.45zm-.19 1.5h.15l.18.2c.43.45.66.65.93.65.18 0 .35-.08.35-.35a.6.6 0 0 0-.15-.37l.17-.08a.78.78 0 0 1 .18.5c0 .39-.27.55-.52.55-.33 0-.6-.24-.96-.62l-.13-.14v.8h-.2v-1.13z"/></g><g fill="#00a9f3"><path d="M58.12 53.34c.02.14.04.31.04.5 0 .34-.08.59-.23.75a.85.85 0 0 1-.67.26c-.3 0-.54-.1-.71-.27-.17-.17-.27-.45-.27-.81l.02-.44h1.82zm-1.63.23a1.37 1.37 0 0 0-.02.24c0 .51.29.79.79.79.43 0 .7-.25.7-.75 0-.12 0-.21-.02-.28H56.5zm1.36 2.02l-.16-.31.18-.05.2.4v.2H56.3v-.24h1.55z"/></g><g fill="#00a9f3"><path d="M50.94 53.34c.02.14.04.31.04.5 0 .34-.08.59-.23.75a.85.85 0 0 1-.66.26c-.3 0-.55-.1-.72-.27-.17-.17-.26-.45-.26-.81 0-.17 0-.32.02-.44h1.81zm-1.63.23l-.01.24c0 .51.28.79.78.79.43 0 .7-.25.7-.75 0-.12 0-.21-.02-.28h-1.45zm.72 2.68c-.6 0-.94-.22-.94-.61 0-.35.33-.59.91-.6.6 0 .93.26.93.63s-.34.58-.9.58zM50 55.3c-.46 0-.72.14-.72.36 0 .25.28.36.73.36.45 0 .73-.1.73-.36 0-.2-.26-.36-.74-.36z"/></g><g fill="#00a9f3"><path d="M42 54.86a1.18 1.18 0 0 1-.08-.49c0-.52.32-.9.93-.9.57 0 .97.38.97.95 0 .23-.05.38-.09.44l-.19-.05a.87.87 0 0 0 .08-.38c0-.43-.28-.72-.76-.72-.45 0-.74.26-.74.71 0 .15.03.3.07.39l-.19.05zm1.52 1.27v-.67l-.46-.07.01.14a.75.75 0 0 1-.1.39.5.5 0 0 1-.45.25c-.35 0-.6-.28-.6-.66a.87.87 0 0 1 .1-.44l.19.06a.8.8 0 0 0-.1.38c0 .22.15.42.38.42s.4-.16.4-.51l-.02-.25.85.11v.85h-.2z"/></g><g fill="#00a9f3"><path d="M34.82 54.86a1.18 1.18 0 0 1-.08-.49c0-.52.33-.9.93-.9.57 0 .97.38.97.95 0 .23-.05.38-.09.44l-.19-.05a.87.87 0 0 0 .08-.38c0-.43-.28-.72-.76-.72-.45 0-.74.26-.74.71 0 .15.03.3.07.39l-.19.05zm-.06.96h.49v-.83h.16l1.13.8v.25h-1.1v.25h-.2v-.25h-.48v-.22zm.68 0h.87a5.01 5.01 0 0 1-.26-.15l-.6-.44h-.01v.59z"/></g><g fill="#00a9f3"><path d="M27.64 54.86a1.18 1.18 0 0 1-.08-.49c0-.52.33-.9.93-.9.58 0 .97.38.97.95 0 .23-.05.38-.08.44l-.2-.05a.87.87 0 0 0 .08-.38c0-.43-.28-.72-.76-.72-.45 0-.74.26-.74.71 0 .15.03.3.07.39l-.19.05zm.22.27a.8.8 0 0 0-.11.4c0 .3.2.4.34.4.25 0 .36-.23.36-.46v-.14h.18v.14c0 .17.09.4.3.4.14 0 .27-.1.27-.32a.65.65 0 0 0-.12-.35l.18-.07a.84.84 0 0 1 .13.47c0 .35-.2.5-.42.5-.19 0-.34-.1-.42-.32-.05.22-.22.4-.46.4-.29 0-.54-.23-.54-.65 0-.2.07-.38.12-.46l.19.06z"/></g><g fill="#00a9f3"><path d="M20.47 54.86a1.18 1.18 0 0 1-.1-.49c0-.52.34-.9.94-.9.58 0 .97.38.97.95 0 .23-.05.38-.08.44l-.2-.05a.87.87 0 0 0 .08-.38c0-.43-.28-.72-.76-.72-.45 0-.74.26-.74.71 0 .15.03.3.07.39l-.19.05zm-.06.21h.14l.19.2c.43.45.66.65.93.65.18 0 .34-.08.34-.35a.6.6 0 0 0-.15-.37l.17-.08a.78.78 0 0 1 .18.5c0 .39-.26.55-.51.55-.33 0-.6-.24-.96-.62l-.13-.14v.8h-.2v-1.13z"/></g><g fill="#00a9f3"><path d="M13.29 54.86a1.18 1.18 0 0 1-.09-.49c0-.52.33-.9.93-.9.58 0 .97.38.97.95 0 .23-.05.38-.08.44l-.2-.05a.87.87 0 0 0 .08-.38c0-.43-.27-.72-.76-.72-.45 0-.74.26-.74.71 0 .15.03.3.08.39l-.19.05zm1.49.73l-.17-.31.19-.05.2.4v.2h-1.77v-.24h1.55z"/></g><g fill="#00a9f3"><path d="M6.11 54.86a1.18 1.18 0 0 1-.09-.49c0-.52.33-.9.93-.9.58 0 .97.38.97.95 0 .23-.05.38-.08.44l-.2-.05a.87.87 0 0 0 .08-.38c0-.43-.27-.72-.76-.72-.45 0-.74.26-.74.71 0 .15.03.3.08.39l-.2.05zm.85 1.4c-.6 0-.94-.23-.94-.62 0-.35.32-.59.91-.6.6 0 .93.26.93.63s-.34.58-.9.58zm-.03-.97c-.46 0-.73.14-.73.36 0 .24.3.36.74.36s.73-.1.73-.36c0-.2-.26-.36-.74-.36z"/></g><g fill="#00a9f3"><path d="M128.09 1.55l1.84-.6v.26l-.9.28c-.26.08-.48.15-.7.2l.69.22.91.31v.25l-1.84-.66v-.26zm1.84 1.36h-1.84v-.24h1.84v.24zm-1.84.42h1.84v.26l-.93.59c-.22.14-.41.24-.6.33.25-.02.47-.02.76-.02h.77v.22h-1.84v-.24l.93-.58c.2-.13.42-.26.62-.35l-.76.01h-.8v-.22z"/></g><g fill="#00a9f3"><path d="M120.99 2.55a1.72 1.72 0 0 1-.1-.56c0-.29.07-.52.24-.7.16-.15.4-.25.69-.25.55 0 .95.38.95 1 0 .2-.05.38-.08.46l-.2-.06a.95.95 0 0 0 .08-.41c0-.45-.28-.74-.74-.74-.47 0-.75.28-.75.7 0 .17.03.27.05.33h.55v-.38h.2v.6h-.9zm-.08.36h1.84v.26l-.93.6c-.22.13-.41.24-.6.33a8.18 8.18 0 0 1 .76-.03h.77v.23h-1.84v-.24l.93-.59a5.56 5.56 0 0 1 .62-.34v-.01l-.77.02h-.78v-.23zm1.82 1.8c.02.15.03.32.03.51 0 .34-.08.59-.23.75a.85.85 0 0 1-.66.26c-.3 0-.54-.1-.71-.27-.18-.17-.27-.45-.27-.81l.02-.43h1.82zm-1.63.24a1.6 1.6 0 0 0-.02.24c0 .51.29.79.79.79.43 0 .7-.25.7-.75 0-.12 0-.21-.02-.28h-1.45z"/></g><g fill="#00a9f3"><path d="M115.37 1.5V.94h.2V2.3h-.2v-.56h-1.64V1.5h1.64zm-1.64 2.08l.4-.24.37-.21a4.7 4.7 0 0 1-.36-.2l-.4-.23v-.27l.92.56.91-.54v.28l-.43.24-.31.17.31.17.43.26v.27l-.9-.56-.94.57v-.27z"/></g><g fill="#00a9f3"><path d="M108.37 1.15c.02.12.04.3.04.46 0 .25-.05.41-.15.53a.46.46 0 0 1-.35.14.48.48 0 0 1-.47-.34h-.01c-.05.14-.18.22-.37.27-.26.06-.44.1-.5.14V2.1c.04-.03.2-.07.43-.12.26-.06.35-.16.36-.37v-.23h-.8v-.23h1.82zm-.84.24v.24c0 .25.14.41.35.41.24 0 .34-.17.34-.42a.98.98 0 0 0-.02-.23h-.67zm-.98 2.25l.4-.23a7.24 7.24 0 0 1 .37-.22 4.64 4.64 0 0 1-.36-.2l-.4-.22v-.28l.92.57.91-.54v.27l-.43.24-.3.17v.01l.3.17.44.25v.27l-.9-.56-.95.58v-.28z"/></g><g fill="#00a9f3"><path d="M99.37 1.45l1.84-.47v.25l-.93.22-.63.14c.18.03.4.1.64.15l.93.25v.25l-.94.22c-.22.06-.44.1-.63.13l.64.16.93.24v.24l-1.85-.52v-.25l.96-.23a5.74 5.74 0 0 1 .6-.12 5.75 5.75 0 0 1-.6-.15l-.96-.26v-.25zm1.84 2.01v.24h-.88l.2.15.68.57v.3l-.78-.68-1.06.72v-.28l.9-.6-.2-.18h-.7v-.24h1.84zm-.02 1.48c.02.12.04.27.04.46 0 .24-.06.41-.16.52a.5.5 0 0 1-.38.16.54.54 0 0 1-.4-.14c-.13-.13-.2-.33-.2-.56a.82.82 0 0 1 .02-.2h-.74v-.23h1.82zm-.89.24a.8.8 0 0 0-.01.2c0 .29.14.46.39.46.24 0 .36-.17.36-.43a1 1 0 0 0-.02-.23h-.72z"/></g><g fill="#00a9f3"><path d="M94.01 1.15c.02.14.04.32.04.5 0 .35-.08.59-.23.75a.84.84 0 0 1-.66.26c-.3 0-.55-.1-.72-.26-.17-.18-.26-.46-.26-.82 0-.17 0-.31.02-.43H94zm-1.63.24l-.01.24c0 .5.28.78.78.78.44 0 .71-.24.71-.75 0-.12 0-.21-.02-.27h-1.46zm.4 1.84l-.59-.2V2.8l1.85.63v.28l-1.85.63v-.25l.58-.2v-.65zm.18.6l.53-.18.34-.1a5.6 5.6 0 0 1-.34-.1l-.53-.17v.55zm-.7 2.02a1.18 1.18 0 0 1-.1-.48c0-.52.33-.91.94-.91.58 0 .97.39.97.96a1 1 0 0 1-.09.43l-.19-.05a.87.87 0 0 0 .08-.37c0-.44-.28-.72-.76-.72-.45 0-.74.26-.74.7 0 .15.03.3.07.4l-.19.04z"/></g><g fill="#00a9f3"><path d="M85.6 1.45l-.59-.2v-.24l1.85.62v.3L85 2.54V2.3l.58-.2v-.66zm.18.6l.53-.18.34-.1a5.6 5.6 0 0 1-.34-.1l-.53-.17v.55zm.81 1.75v-.68l-.46-.07a.9.9 0 0 1 .01.15c0 .13-.03.27-.1.38a.5.5 0 0 1-.45.25c-.35 0-.6-.27-.6-.66a.87.87 0 0 1 .1-.44l.19.06a.8.8 0 0 0-.1.38c0 .23.15.42.38.42s.4-.16.4-.51l-.02-.25.85.12v.85h-.2z"/></g><g fill="#00a9f3"><path d="M87.68 11.59c.33-.02.73-.04 1.03-.04l-.9-.3-1.17-.43v-.23l1.14-.39c.34-.11.65-.21.93-.28a32.48 32.48 0 0 1-1.06-.05l-1.02-.06v-.3l2.39.17v.4l-1.16.4c-.3.1-.55.18-.8.24v.01c.24.06.5.15.8.25l1.16.43v.39l-2.39.15v-.3l1.05-.06zm.17 2.87c-.82 0-1.26-.5-1.26-1.1 0-.64.5-1.08 1.21-1.08.76 0 1.26.47 1.26 1.1 0 .66-.5 1.08-1.21 1.08zm-.04-1.85c-.51 0-.97.28-.97.76 0 .49.45.77 1 .77.47 0 .96-.25.96-.76s-.47-.77-1-.77zm1.17 2.25c.03.19.05.41.05.66 0 .44-.1.75-.3.96-.19.21-.46.34-.85.34-.39 0-.7-.12-.93-.35-.22-.22-.34-.59-.34-1.05 0-.22 0-.4.03-.56h2.34zm-2.1.31c-.02.08-.02.19-.02.31 0 .66.36 1.02 1 1.02.57 0 .93-.32.93-.97a1.7 1.7 0 0 0-.03-.36h-1.89zm.87 3.28v-.92h-.86v1.03h-.26v-1.34h2.39v1.29h-.26v-.98H88v.92h-.25z"/></g><g fill="#00a9f3"><path d="M88.98 39.2c.04.16.05.38.05.6 0 .32-.06.54-.2.68a.6.6 0 0 1-.44.2.63.63 0 0 1-.61-.46h-.01c-.07.19-.24.3-.48.35-.34.08-.57.14-.66.19v-.32c.07-.04.27-.1.57-.16.33-.07.45-.2.46-.48v-.29h-1.03v-.3h2.35zm-1.08.31v.32c0 .32.18.53.45.53.31 0 .44-.22.45-.55 0-.15-.02-.25-.03-.3h-.87zm-.15 2.83v-.93h-.86v1.04h-.26V41.1h2.39v1.29h-.26v-.99H88v.93h-.25zm-.74.46a1.1 1.1 0 0 0-.16.56c0 .31.17.5.4.5s.36-.13.48-.45c.14-.4.34-.63.68-.63.37 0 .65.3.65.77 0 .24-.06.42-.12.53l-.25-.09a.95.95 0 0 0 .11-.45c0-.33-.2-.45-.36-.45-.22 0-.33.14-.46.47-.15.4-.35.61-.7.61-.37 0-.68-.27-.68-.83 0-.23.06-.48.15-.61l.26.08zm.74 3.03v-.93h-.86v1.03h-.26V44.6h2.39v1.3h-.26v-.99H88v.93h-.25zm1 1.01v-.72h.27v1.77h-.27v-.73h-2.12v-.31h2.12z"/></g><g fill="#00a9f3"><path d="M78.42 1.45l-.58-.2v-.24l1.84.62v.3l-1.85.62V2.3l.59-.2v-.66zm.18.6l.53-.18.34-.1a5.6 5.6 0 0 1-.34-.1l-.53-.17v.55zm-.76 1.43h.48v-.82h.16l1.13.79v.26h-1.1v.25h-.19V3.7h-.48v-.23zm.67 0h.6l.27.01v-.01a5.03 5.03 0 0 1-.26-.15l-.6-.43h-.01v.58z"/></g><g fill="#00a9f3"><path d="M71.24 1.45l-.58-.2v-.24l1.84.62v.3l-1.84.62V2.3l.58-.2v-.66zm.18.6l.53-.18.34-.1a5.6 5.6 0 0 1-.33-.1l-.54-.17v.55zm-.49.75a.8.8 0 0 0-.1.39c0 .3.19.4.34.4.25 0 .35-.23.35-.46V3h.18v.13c0 .18.1.4.3.4.15 0 .27-.1.27-.31a.65.65 0 0 0-.12-.36l.18-.06a.84.84 0 0 1 .14.46c0 .35-.21.51-.43.51-.18 0-.34-.1-.42-.33-.05.22-.2.4-.46.4-.28 0-.53-.22-.53-.65 0-.2.06-.37.12-.46l.19.06z"/></g><g fill="#00a9f3"><path d="M64.06 1.45l-.58-.2v-.24l1.84.62v.3l-1.84.62V2.3l.58-.2v-.66zm.18.6l.53-.18.34-.1a5.6 5.6 0 0 1-.33-.1l-.53-.17v.55zm-.76.69h.15l.18.19c.43.45.66.65.93.66.18 0 .35-.09.35-.35a.6.6 0 0 0-.15-.38l.17-.08a.78.78 0 0 1 .18.5c0 .39-.27.55-.52.55-.33 0-.6-.24-.96-.61l-.13-.14v.8h-.2V2.73z"/></g><g fill="#00a9f3"><path d="M56.88 1.45l-.58-.2v-.24l1.84.62v.3l-1.84.62V2.3l.58-.2v-.66zm.19.6l.53-.18.33-.1a5.6 5.6 0 0 1-.33-.1l-.53-.17v.55zm.78 1.21l-.16-.32.18-.04.2.39v.2H56.3v-.23h1.55z"/></g><g fill="#00a9f3"><path d="M49.7 1.45l-.58-.2v-.24l1.84.62v.3l-1.84.62V2.3l.58-.2v-.66zm.19.6l.53-.18.33-.1a5.6 5.6 0 0 1-.33-.1l-.53-.17v.55zm.14 1.87c-.6 0-.94-.23-.94-.62 0-.35.33-.58.92-.59.6 0 .92.26.92.62 0 .38-.34.6-.9.6zM50 2.95c-.46 0-.72.14-.72.36 0 .25.28.37.73.37.45 0 .73-.12.73-.36 0-.21-.26-.37-.74-.37z"/></g><g fill="#00a9f3"><path d="M43.76 1.15a2.2 2.2 0 0 1 .04.43c0 .24-.04.4-.14.5a.39.39 0 0 1-.32.16c-.18 0-.33-.12-.4-.31h-.01c-.04.17-.19.38-.46.38a.5.5 0 0 1-.37-.16c-.12-.13-.17-.33-.17-.63 0-.17 0-.3.02-.37h1.81zm-.75.24v.21c0 .25.13.4.3.4.22 0 .3-.16.3-.4l-.01-.21H43zm-.89 0v.2c0 .24.08.47.35.47.25 0 .36-.22.36-.48v-.2h-.7zm1.4 2.22v-.68l-.46-.07.01.15a.75.75 0 0 1-.1.38.5.5 0 0 1-.45.25c-.35 0-.6-.27-.6-.66a.87.87 0 0 1 .1-.44l.19.06a.8.8 0 0 0-.1.38c0 .23.15.42.38.42s.4-.16.4-.51l-.02-.25.85.12v.85h-.2z"/></g><g fill="#00a9f3"><path d="M36.58 1.15c.02.1.04.27.04.43 0 .24-.04.4-.13.5a.39.39 0 0 1-.33.16c-.17 0-.33-.12-.4-.31-.05.17-.2.38-.47.38a.5.5 0 0 1-.37-.16c-.12-.13-.17-.33-.17-.63 0-.17 0-.3.02-.37h1.81zm-.75.24v.21c0 .25.13.4.3.4.22 0 .3-.16.3-.4v-.21h-.6zm-.89 0v.2c0 .24.08.47.35.47.25 0 .36-.22.36-.48v-.2h-.7zm-.18 1.9h.49v-.83h.16l1.13.8v.26h-1.1v.25h-.2v-.25h-.47v-.23zm.68 0h.87a5.01 5.01 0 0 1-.26-.15l-.6-.43h-.01v.58z"/></g><g fill="#00a9f3"><path d="M29.4 1.15a2.3 2.3 0 0 1 .04.43c0 .24-.04.4-.13.5a.39.39 0 0 1-.33.16c-.17 0-.33-.12-.4-.31-.05.17-.2.38-.47.38a.5.5 0 0 1-.37-.16c-.12-.13-.17-.33-.17-.63l.02-.37h1.81zm-.75.24v.21c0 .25.13.4.3.4.22 0 .3-.16.3-.4a.95.95 0 0 0 0-.21h-.6zm-.88 0l-.01.2c0 .24.08.47.35.47.25 0 .36-.22.36-.48v-.2h-.7zm.09 1.21a.8.8 0 0 0-.11.4c0 .3.2.4.34.4.25 0 .36-.23.36-.46V2.8h.18v.13c0 .17.09.4.3.4.14 0 .27-.1.27-.32a.65.65 0 0 0-.12-.35l.18-.07a.84.84 0 0 1 .13.47c0 .35-.2.5-.42.5-.19 0-.34-.1-.42-.32-.05.22-.22.4-.46.4-.29 0-.54-.23-.54-.65 0-.2.07-.38.12-.46l.19.06z"/></g><g fill="#00a9f3"><path d="M22.23 1.15a2.3 2.3 0 0 1 .03.43c0 .24-.04.4-.13.5a.39.39 0 0 1-.33.16c-.17 0-.33-.12-.4-.31-.05.17-.2.38-.47.38a.5.5 0 0 1-.37-.16c-.12-.13-.17-.33-.17-.63 0-.17 0-.3.02-.37h1.81zm-.76.24v.21c0 .25.13.4.31.4.21 0 .3-.16.3-.4 0-.11 0-.18-.02-.21h-.59zm-.88 0l-.01.2c0 .24.09.47.35.47s.36-.22.36-.48v-.2h-.7zm-.18 1.16h.14l.19.19c.43.45.66.65.93.66.18 0 .34-.1.34-.36a.6.6 0 0 0-.15-.37l.17-.08a.78.78 0 0 1 .18.5c0 .39-.26.55-.51.55-.33 0-.6-.24-.96-.62l-.13-.14v.8h-.2V2.54z"/></g><g fill="#00a9f3"><path d="M15.05 1.15c.02.1.04.27.04.43 0 .24-.05.4-.14.5a.39.39 0 0 1-.32.16c-.18 0-.34-.12-.4-.31h-.01c-.05.17-.2.38-.47.38a.5.5 0 0 1-.37-.16c-.11-.13-.17-.33-.17-.63l.02-.37h1.82zm-.76.24v.21c0 .25.13.4.31.4.22 0 .3-.16.3-.4l-.01-.21h-.6zm-.88 0l-.01.2c0 .24.09.47.36.47.25 0 .35-.22.35-.48v-.2h-.7zm1.37 1.68l-.17-.32.19-.04.2.39v.2h-1.77v-.23h1.55z"/></g><g fill="#00a9f3"><path d="M7.87 1.15c.02.1.04.27.04.43 0 .24-.04.4-.14.5a.39.39 0 0 1-.32.16c-.18 0-.34-.12-.4-.31h-.01c-.05.17-.2.38-.47.38a.5.5 0 0 1-.37-.16c-.11-.13-.17-.33-.17-.63l.02-.37h1.82zm-.76.24v.21c0 .25.13.4.31.4.22 0 .3-.16.3-.4l-.01-.21h-.6zm-.88 0l-.01.2c0 .24.09.47.36.47.25 0 .35-.22.35-.48v-.2h-.7zm.73 2.34c-.6 0-.94-.23-.94-.62 0-.35.32-.58.91-.6.6 0 .93.27.93.63 0 .37-.34.59-.9.59zm-.03-.97c-.46 0-.73.14-.73.36 0 .25.3.37.74.37s.73-.12.73-.36c0-.21-.26-.37-.74-.37z"/></g><g fill="#404040"><path d="M105.2 50.05a3.4 3.4 0 0 1-.5.04c-.35 0-.6-.08-.75-.23a.85.85 0 0 1-.26-.66c0-.3.09-.55.26-.72.17-.17.46-.27.82-.27.17 0 .3.01.43.03v1.8zm-.24-1.63a1.5 1.5 0 0 0-.24-.02c-.51 0-.79.29-.79.79 0 .43.25.7.75.7.12 0 .22 0 .28-.02v-1.45zM102.3 50v-.16l.77-1.62h.25l-.77 1.57h.87v.2h-1.12z"/></g><text transform="rotate(90 42.11 93.78)" fill="#404040" font-family="Gotham-Medium" font-size="1.89">VUSB</text><circle cx="140.18" cy="54.34" r="1.83" fill="#f2f2f2"/><g><path d="M140.18 52.96a1.38 1.38 0 0 1 0 2.77 1.38 1.38 0 0 1 0-2.77m0-.69a2.07 2.07 0 1 0 0 4.15 2.07 2.07 0 0 0 0-4.15z" fill="#fbae17"/></g><path d="M142.81 0v5.38a1.27 1.27 0 0 1-1.27 1.27h-4.33a1.27 1.27 0 0 1-1.27-1.27V0h6.87z" fill="#00a9f3"/><circle cx="140.18" cy="3.22" r="1.83" fill="#f2f2f2"/><g><path d="M140.18 1.83a1.38 1.38 0 0 1 0 2.77 1.38 1.38 0 0 1 0-2.76m0-.7a2.07 2.07 0 1 0 0 4.15 2.07 2.07 0 0 0 0-4.15z" fill="#fbae17"/></g><g><path d="M137.62 1.6v.22h-1.45v.7H136V1.6h1.62zm-.13 1.38c-.07 0-.13-.05-.13-.14 0-.07.06-.13.13-.13a.13.13 0 0 1 .14.13c0 .08-.06.13-.14.13zm-1.5-.24h1.18v.21H136v-.21zm1.3 1.32h-.58v.54h-.14v-.54H136V3.9h.57v-.54h.14v.54h.57v.16z" fill="#404040"/></g><g><path d="M126.8 42.14a.9.9 0 0 1 0 1.8.9.9 0 0 1 0-1.8m0-.45a1.35 1.35 0 1 0 0 2.7 1.35 1.35 0 0 0 0-2.7z" fill="#fbae17"/></g><g><path d="M126.8 38.62a.9.9 0 0 1 0 1.8.9.9 0 0 1 0-1.8m0-.45a1.35 1.35 0 1 0 0 2.7 1.35 1.35 0 0 0 0-2.7z" fill="#fbae17"/></g><path fill="#F03" d="M112.74 24.14h3.1v1.96h-3.1z"/></svg>