<?xml version="1.0" encoding="iso-8859-1"?>
<!-- Generator: Adobe Illustrator 19.0.0, SVG Export Plug-In . SVG Version: 6.00 Build 0)  -->
<svg version="1.1" id="Capa_1" xmlns="http://www.w3.org/2000/svg" xmlns:xlink="http://www.w3.org/1999/xlink" x="0px" y="0px"
	 viewBox="0 0 490.672 490.672" style="enable-background:new 0 0 490.672 490.672;" xml:space="preserve">
<g>
	<path style="fill:#2196F3;" d="M74.67,192.005c-5.891,0-10.667-4.776-10.667-10.667v-53.333H10.67
		c-5.891,0.001-10.668-4.773-10.669-10.664c0-1.932,0.524-3.828,1.517-5.485l64-106.667c3.026-5.055,9.576-6.699,14.631-3.673
		c3.219,1.927,5.189,5.404,5.188,9.156v96h10.667c5.891,0,10.667,4.776,10.667,10.667s-4.776,10.667-10.667,10.667H85.337v53.333
		C85.337,187.23,80.561,192.005,74.67,192.005z M29.508,106.672h34.496V49.179L29.508,106.672z"/>
	<path style="fill:#2196F3;" d="M181.337,192.005c-29.455,0-53.333-23.878-53.333-53.333V53.339
		c0-29.455,23.878-53.333,53.333-53.333c29.455,0,53.333,23.878,53.333,53.333c0,5.891-4.776,10.667-10.667,10.667
		c-5.891,0-10.667-4.776-10.667-10.667c0-17.673-14.327-32-32-32s-32,14.327-32,32v85.333c0,17.673,14.327,32,32,32s32-14.327,32-32
		v-10.667h-32c-5.891,0-10.667-4.776-10.667-10.667s4.776-10.667,10.667-10.667h42.667c5.891,0,10.667,4.776,10.667,10.667v21.333
		C234.67,168.127,210.792,192.005,181.337,192.005z"/>
</g>
<g>
	<path style="fill:#009688;" d="M217.753,260.464c-10.237-4.26-22.034-1.918-29.867,5.931L146.18,308.08
		c-11.697,11.617-18.245,27.44-18.176,43.925v111.296c0.047,15.122,12.313,27.359,27.435,27.371h51.819
		c15.139-0.023,27.402-12.296,27.413-27.435V285.872C234.722,274.751,228.034,264.706,217.753,260.464z"/>
	<path style="fill:#009688;" d="M89.753,388.464c-10.238-4.248-22.028-1.907-29.867,5.931l0,0l-49.472,49.472
		c-10.71,10.701-10.717,28.058-0.016,38.768c5.161,5.165,12.17,8.058,19.472,8.037h49.365c15.147-0.012,27.423-12.288,27.435-27.435
		v-49.365C106.716,402.753,100.03,392.711,89.753,388.464z"/>
	<path style="fill:#009688;" d="M473.753,4.464c-10.24-4.273-22.047-1.92-29.867,5.952L402.18,52.08
		c-11.691,11.621-18.237,27.442-18.176,43.925v367.232c0.012,15.147,12.288,27.423,27.435,27.435h51.819
		c15.139-0.023,27.402-12.296,27.413-27.435V29.872C490.722,18.751,484.034,8.706,473.753,4.464z"/>
	<path style="fill:#009688;" d="M345.753,132.464c-10.24-4.267-22.044-1.915-29.867,5.952L274.18,180.08
		c-11.691,11.621-18.237,27.442-18.176,43.925v239.232c0.012,15.147,12.288,27.423,27.435,27.435h51.819
		c15.139-0.023,27.402-12.296,27.413-27.435V157.872C362.722,146.751,356.034,136.706,345.753,132.464z"/>
</g>
<g>
</g>
<g>
</g>
<g>
</g>
<g>
</g>
<g>
</g>
<g>
</g>
<g>
</g>
<g>
</g>
<g>
</g>
<g>
</g>
<g>
</g>
<g>
</g>
<g>
</g>
<g>
</g>
<g>
</g>
</svg>
